<?xml version="1.0" standalone="no"?>
<!DOCTYPE svg PUBLIC "-//W3C//DTD SVG 1.1//EN" "http://www.w3.org/Graphics/SVG/1.1/DTD/svg11.dtd" >
<svg xmlns="http://www.w3.org/2000/svg">
<metadata>
This is a custom SVG webfont generated by Font Squirrel.
Copyright   :  20002001 Apostrophic Laboratories  Graham Meade All rights reserved Visit wwwapostrophiclabcom or email infoapostrophiclabcom for more info
Designer    : Apostrophe  Graham Meade
Foundry URL : wwwapostrophiclabcom
</metadata>
<defs>
<font id="GilgongoRegular" horiz-adv-x="1490" >
<font-face units-per-em="2048" ascent="1638" descent="-410" />
<missing-glyph horiz-adv-x="735" />
<glyph unicode=" "  horiz-adv-x="735" />
<glyph unicode="&#x09;" horiz-adv-x="735" />
<glyph unicode="&#xa0;" horiz-adv-x="735" />
<glyph unicode="!" horiz-adv-x="577" d="M92 172q0 -82 57.5 -135t139.5 -53q39 0 74.5 14t63.5 39.5t43 59.5t15 75q0 86 -55 145.5t-141 59.5t-141.5 -59.5t-55.5 -145.5zM94 1479q0 -20 5 -60.5t16 -101.5l147 -879h53l148 879q10 61 15 101t5 61q0 195 -194 194q-195 1 -195 -194z" />
<glyph unicode="&#x22;" horiz-adv-x="733" d="M55 1501l109 -424l24 6l115 422q14 49 -2 105q-18 59 -62 79.5t-99.5 2t-80.5 -75.5q-18 -58 -4 -115zM430 1501l111 -424l22 6l117 422q14 51 -4 105q-16 59 -61.5 79.5t-100.5 2.5q-57 -18 -78 -76q-22 -56 -6 -115z" />
<glyph unicode="#" horiz-adv-x="2490" d="M92 0h238v1169h4l772 -1169h260v1499q0 49 -33 84t-82 35q-51 0 -86 -34t-35 -85v-711h-6l-530 805h-502v-1593zM1485 999q0 -94 34.5 -174t96 -138t142.5 -91t173 -33t174 33t143.5 91t98.5 138t37 174q0 90 -36 174t-97.5 147.5t-144.5 99.5t-175 34q-92 2 -174 -35 t-142.5 -100.5t-95 -146.5t-34.5 -173zM1501 227h879v236h-879v-236zM1788 1010q0 61 5 112.5t21.5 90t45 64.5t75.5 36q147 0 148 -303q0 -305 -148 -305q-147 0 -147 305z" />
<glyph unicode="$" horiz-adv-x="1337" d="M92 299q137 -250 393 -307l-34 -203h108l33 188q139 -14 269 23t220 117q164 147 164 399q0 215 -164 344q-18 14 -38.5 27.5t-55.5 32t-88 43t-135 59.5l65 408q98 -41 199 -222l180 133q-139 236 -344 295l27 168h-109l-24 -147q-20 2 -43 3t-45 1q-123 0 -225.5 -39 t-174 -110.5t-111.5 -173t-40 -224.5q0 -209 160 -340q18 -14 38.5 -28.5t53 -33t84 -44t131.5 -62.5l-66 -399q-115 47 -205 225zM537 1243q0 207 186 207l-61 -379q-125 76 -125 172zM625 186l59 369q129 -74 129 -174q0 -86 -51 -137.5t-137 -57.5z" />
<glyph unicode="%" horiz-adv-x="2275" d="M92 1206q0 -94 35 -174t96.5 -138t142 -91t173.5 -33q92 0 174 33t143.5 91t98 138t36.5 174q0 90 -35.5 174t-97 147.5t-144.5 99.5t-175 34q-92 2 -174 -35t-142.5 -100.5t-95.5 -146.5t-35 -173zM395 1217q0 61 5.5 112t21.5 90t45 64.5t76 36.5q147 0 147 -303 q0 -305 -147 -306q-148 1 -148 306zM469 -25h180l1155 1686h-180zM1284 414q0 -94 35 -174t95.5 -138.5t142 -92.5t174.5 -34q92 0 174 34t144 92.5t98 138t36 174.5q0 90 -36 174t-97 147.5t-144 99t-175 33.5q-92 2 -174 -34.5t-142.5 -100t-95.5 -146.5t-35 -173z M1587 422q0 61 5 112.5t21.5 90.5t45.5 64.5t76 35.5q147 0 147 -303t-147 -303q-148 0 -148 303z" />
<glyph unicode="&#x26;" horiz-adv-x="1605" d="M98.5 385q14.5 -92 68.5 -171t136 -136.5t186.5 -90t217.5 -32.5q131 0 238.5 29.5t207.5 101.5q86 61 156.5 154.5t118 209t70 248.5t11.5 275h-161q2 -37 2 -72v-67q0 -152 -52 -252l-288 428q43 55 77.5 117.5t50 127t6.5 129t-57 125.5q-53 68 -128.5 99.5 t-159.5 32.5t-166 -25.5t-146.5 -76.5t-100.5 -120.5t-28 -156.5q2 -25 20.5 -62t42 -77t48.5 -76l41 -62q-47 -31 -115.5 -81t-158.5 -122q-90 -102 -121 -203.5t-16.5 -193.5zM537 543.5q2 62.5 32.5 119t98.5 95.5l348 -510q-94 -53 -198.5 -35t-182.5 96 q-47 49 -73.5 110.5t-24.5 124zM735 1405q6 10 18.5 20.5t29 19.5t32.5 15t29 6q109 0 108 -127q0 -35 -26.5 -73.5t-59.5 -51.5z" />
<glyph unicode="'" horiz-adv-x="354" d="M55 1501l109 -424l24 6l115 422q14 49 -2 105q-18 59 -62 79.5t-99.5 2t-80.5 -75.5q-18 -58 -4 -115z" />
<glyph unicode="(" horiz-adv-x="800" d="M92 553q0 -360 144 -684q172 -391 473 -483v94q-61 45 -104.5 119.5t-74 167t-50 197t-30 208.5t-14.5 202.5t-4 178.5q0 74 4 172t15.5 204.5t31 215t50 203t73.5 168t103 110.5v94q-109 -35 -197 -104.5t-155.5 -163.5t-115.5 -202.5t-81 -219.5q-68 -244 -68 -477z " />
<glyph unicode=")" horiz-adv-x="800" d="M92 -520v-94q98 16 183 80.5t154 158.5t121 212t87 242t53.5 247t18.5 227t-16.5 223t-49.5 239t-84 233.5t-118.5 208.5t-154.5 164t-194 99v-94q51 -35 90 -95.5t69 -137t50.5 -165.5t33.5 -178t20 -175.5t12 -155.5q6 -166 -2.5 -333t-30 -316.5t-56 -274.5 t-83.5 -209q-42 -71 -103 -106z" />
<glyph unicode="+" horiz-adv-x="1032" d="M49 575h293v-356h322v356h315v236h-313v254q0 35 -11.5 72t-32 66.5t-50 49t-68.5 19.5t-68.5 -19.5t-51.5 -49t-33 -66.5t-11 -72v-254h-291v-236z" />
<glyph unicode="," horiz-adv-x="505" d="M92 -326h29l268 412q27 39 33 85t-8.5 85t-48 64.5t-86.5 25.5q-35 0 -62 -16.5t-47 -42t-32.5 -57t-14.5 -62.5z" />
<glyph unicode="-" horiz-adv-x="786" d="M92 575h602v236h-602v-236z" />
<glyph unicode="." horiz-adv-x="577" d="M92 172q0 -82 57.5 -135t139.5 -53q39 0 74.5 14t63.5 39.5t43 59.5t15 75q0 86 -55 145.5t-141 59.5t-141.5 -59.5t-55.5 -145.5z" />
<glyph unicode="/" horiz-adv-x="1445" d="M-4 0h442l967 1466q41 63 41 117q0 109 -119 111q-98 0 -211 -70q-102 -63 -162 -154z" />
<glyph unicode="0" horiz-adv-x="1531" d="M92 680q0 -279 144 -473q170 -231 458 -232q266 0 453 175q170 158 244 428q49 178 49 378q0 281 -144 476q-166 229 -458 229q-266 0 -453 -174q-170 -158 -244 -428q-49 -178 -49 -379zM539 819q0 229 32 391q51 260 195 260q207 0 223 -540q2 -35 2 -62v-49 q0 -229 -33 -391q-51 -260 -192 -260q-227 0 -227 651z" />
<glyph unicode="1" horiz-adv-x="770" d="M37 1376l207 33v-1409h432v1636l-639 -100v-160z" />
<glyph unicode="2" horiz-adv-x="1353" d="M92 0h1221v221h-633l334 395q135 139 189 289t42 284t-86 243.5t-192.5 171t-275 65.5t-337.5 -74q-66 -33 -115 -82t-81.5 -109.5t-49 -130t-14.5 -138.5q2 -47 33 -79t78 -32t79.5 31.5t30.5 79.5q-6 57 11.5 114.5t52.5 103.5t86 74.5t110 26.5q106 4 165 -52t74 -138 t-10.5 -170t-88.5 -148l-623 -747v-199z" />
<glyph unicode="3" horiz-adv-x="1282" d="M41 1534q0 -43 29.5 -73.5t72.5 -30.5h428l-387 -521h336q121 0 121 -110q0 -53 -57 -131l-308 -426q-29 -37 -42 -83t-11 -91t21.5 -86t56.5 -72q37 -29 82 -44.5t90 -13t86 23t72 61.5l463 641q82 113 82 235q0 176 -175 244q-61 23 -135 22h-24l399 557h-1094 q-43 0 -74.5 -29.5t-31.5 -72.5z" />
<glyph unicode="4" horiz-adv-x="1449" d="M41 346h729v-149q0 -45 17.5 -85t47 -70t69.5 -47.5t85 -17.5t84 17.5t68.5 47.5t46 70t16.5 85v149h205v221h-205v1069h-424l-739 -1069v-221zM311 567l445 660h14v-660h-459z" />
<glyph unicode="5" horiz-adv-x="1179" d="M92 944h422q86 0 86 -88q0 -25 -18 -61l-363 -553q-41 -49 -51 -106.5t7.5 -112t57 -96.5t99.5 -60q66 -23 134.5 -6.5t102.5 73.5l435 682q61 94 86 195q8 31 8 51q0 244 -277 244h-297v324h451q43 0 72.5 29.5t29.5 72.5t-29.5 73.5t-72.5 30.5h-883v-692z" />
<glyph unicode="6" horiz-adv-x="1363" d="M96 430q10 -98 50 -186t116 -148q156 -121 412 -121q131 0 241.5 47.5t190.5 130.5t123 196.5t41 244.5q2 100 -35 177t-99.5 129t-147.5 79t-179 27q-33 0 -113 -23l181 453q25 63 5 123.5t-73 103.5q-47 39 -98.5 47t-100.5 -8t-89 -54t-60 -89l-309 -746 q-35 -84 -50.5 -184.5t-5.5 -198.5zM520 487q0 51 6 106.5t23.5 101.5t48.5 75t80 29q156 0 156 -312q0 -188 -72 -276q-31 -37 -84 -37q-158 0 -158 313z" />
<glyph unicode="7" horiz-adv-x="1224" d="M41 1430h676l-553 -1246q-20 -43 -21 -96q0 -92 60.5 -154.5t152.5 -70.5q143 -14 203 121l625 1427v225h-1143v-206z" />
<glyph unicode="8" horiz-adv-x="1396" d="M92 446q0 -119 46 -207.5t124 -147t179.5 -87.5t213.5 -29q125 0 242 35t208 102.5t145.5 168t54.5 233.5q0 266 -263 387q37 20 72 60t61.5 86.5t43 96.5t16.5 93q0 106 -41 187t-110.5 134.5t-162 79t-194.5 23.5q-104 4 -204.5 -26.5t-180.5 -92t-129 -149.5t-49 -199 q0 -184 203 -334q-275 -158 -275 -414zM555 475q0 182 68 266q29 35 79 35q139 0 140 -301q0 -303 -140 -303q-147 0 -147 303zM567 1202q0 276 131 277q133 0 133 -277q0 -279 -133 -278q-131 -1 -131 278z" />
<glyph unicode="9" horiz-adv-x="1337" d="M92 1079q0 -94 37 -171t100.5 -131t145.5 -83.5t174 -29.5q16 0 36.5 1t43.5 3l-324 -668h475l336 690q55 106 90 222t38 226.5t-32.5 211t-121.5 178.5q-150 133 -404 133q-123 0 -231.5 -44t-189.5 -122t-127 -184.5t-46 -231.5zM510 1178q4 47 9 100t19.5 97t42 74 t76.5 30q45 0 74 -33t45.5 -80t22.5 -99.5t6 -88.5q0 -47 -6 -100.5t-22.5 -98.5t-45.5 -75t-74 -30q-43 0 -72.5 33t-46 81t-22.5 100.5t-6 89.5z" />
<glyph unicode=":" horiz-adv-x="577" d="M92 172q0 -82 57.5 -135t139.5 -53q39 0 74.5 14t63.5 39.5t43 59.5t15 75q0 86 -55 145.5t-141 59.5t-141.5 -59.5t-55.5 -145.5zM92 838q0 -82 57.5 -135.5t139.5 -53.5q39 0 74.5 14.5t63.5 40t43 59.5t15 75q0 86 -55 145t-141 59t-141.5 -59t-55.5 -145z" />
<glyph unicode=";" horiz-adv-x="643" d="M92 -487h37l352 536q45 70 45 156t-52 135t-138 49t-143 -76q-53 -70 -60 -155zM158 838q0 -82 57 -135.5t139 -53.5q39 0 75 14.5t63.5 40t43 59.5t15.5 75q0 86 -55.5 145t-141.5 59t-141 -59t-55 -145z" />
<glyph unicode="&#x3c;" horiz-adv-x="753" d="M47 625l182 -398q18 -39 50 -64.5t68 -31.5t71 8.5t59 53.5q33 55 10.5 111t-71.5 89l-355 252zM51 797l21 -9l346 269q33 27 50 64.5t15 73.5t-23.5 65.5t-66.5 44.5q-59 20 -109.5 -14t-70.5 -89zM82 727l6 -25l422 -116q41 -12 81 -5t68.5 29.5t40 58.5t-3.5 79 q-18 61 -75.5 81.5t-114.5 4.5z" />
<glyph unicode="=" horiz-adv-x="1251" d="M92 180h1067v236h-1067v-236zM92 651h1067v236h-1067v-236z" />
<glyph unicode="&#x3e;" horiz-adv-x="753" d="M46 669q-11 36 3 79q18 61 75.5 81.5t115.5 4.5l424 -107l-7 -25l-421 -116q-41 -12 -81 -5t-69 29.5t-40 58.5zM258.5 304q22.5 56 71.5 89l354 252l14 -20l-182 -398q-18 -39 -50 -64.5t-68 -31.5t-70.5 8.5t-59.5 53.5q-32 55 -9.5 111zM262 1195q2 36 23.5 65.5 t66.5 44.5q31 10 58.5 6t51 -19.5t42 -39t28.5 -50.5l162 -405l-20 -9l-346 269q-35 27 -51.5 64.5t-14.5 73.5z" />
<glyph unicode="?" horiz-adv-x="1087" d="M41 1194q2 -47 33.5 -72.5t68.5 -26.5t69 23.5t32 73.5q-6 53 9 105.5t47 94.5t78 67.5t101 25.5q88 0 148.5 -52.5t60.5 -138.5q-6 -61 -26.5 -103t-51 -77t-72.5 -69.5t-94 -83.5q-86 -84 -86 -185q0 -6 2 -14t8.5 -37t18.5 -90.5t35 -175.5h133q8 66 31.5 138.5 t95.5 129.5q80 63 146.5 111.5t115.5 100.5t76 118.5t27 169.5q0 150 -76 251t-189.5 150t-250 45t-255.5 -65q-121 -61 -180 -170t-55 -244zM293 172q0 -82 57.5 -135t138.5 -53q39 0 75 14t62.5 39.5t43 60.5t16.5 74q0 41 -15.5 78t-42 65.5t-62.5 45t-77 16.5 q-86 0 -141 -59.5t-55 -145.5z" />
<glyph unicode="@" horiz-adv-x="1955" d="M82 637q0 -174 68.5 -343t192.5 -301t299 -213t388 -81q150 0 281 36t231 85t167 98t89 76l-61 55q-12 -10 -62.5 -49t-137.5 -82t-212 -78t-287 -35q-190 0 -338.5 76t-250 196t-153.5 268.5t-52 295.5q0 117 35.5 231.5t98 219t149.5 192.5t188.5 153.5t214 102.5 t227.5 37q102 0 211 -44t199 -127t147.5 -204t57.5 -274q0 -150 -48.5 -267.5t-120 -199.5t-153.5 -125t-147 -45l112 475q96 414 -477 414q-104 0 -143 -25t-47 -57q-4 -23 0 -38.5t30.5 -26.5t79.5 -16t148 -5q111 0 164 -34t32 -81q-41 8 -70.5 13t-62.5 5 q-31 0 -68.5 -7t-95.5 -19q-39 -12 -85 -36t-88 -59.5t-74.5 -80.5t-45.5 -101q-20 -86 -18 -164.5t32.5 -133t93 -76t163.5 7.5q47 14 84 34.5t84 38.5q-6 -90 38 -121.5t128 -31.5q123 0 242.5 58.5t213.5 161.5t152.5 242.5t58.5 299.5q0 170 -61.5 312t-162.5 243.5 t-234.5 158t-276.5 56.5t-278.5 -40t-253 -110.5t-217 -169t-170 -216.5t-109.5 -251t-39 -274zM791.5 474q-5.5 52 19.5 138q16 51 43 98.5t70 76t106.5 32.5t153.5 -28l-82 -328q-31 -33 -63.5 -57.5t-53.5 -20.5q-53 -16 -95 -15t-67.5 26.5t-31 77.5z" />
<glyph unicode="A" horiz-adv-x="1456" d="M94 94q0 -51 35 -85t86 -34q49 0 82 35t33 84v522h590v-616h444v1083q0 180 -96.5 312.5t-263.5 195.5q-117 45 -269 45q-285 0 -452 -118q-189 -132 -189 -401v-11v-1012zM328 819v248q4 311 288 311q305 0 302 -311v-248h-590z" />
<glyph unicode="B" horiz-adv-x="1513" d="M92 0h854q319 0 461 201q53 78 53 196q0 158 -121 273q-109 100 -272 133l2 6q143 12 236 111q94 100 94 243q0 215 -172 330q-145 100 -373 100h-614q-59 0 -103.5 -44t-44.5 -103v-1446zM537 201v516h157q59 0 110.5 -20.5t88.5 -56.5t58.5 -86t21.5 -110 q0 -117 -65.5 -180t-182.5 -63h-188zM537 920v471h145q117 0 185.5 -63.5t68.5 -180.5h-2q2 -227 -227 -227h-170z" />
<glyph unicode="C" horiz-adv-x="1722" d="M92 797q0 -188 69.5 -347t191.5 -274t285 -180.5t349 -65.5q117 0 210 21.5t172 66.5t145.5 117t127.5 170q18 27 19 62q0 47 -34 79.5t-81 32.5q-61 0 -94 -51q-45 -70 -92 -117t-100.5 -77.5t-118 -45t-144.5 -16.5q-125 2 -205.5 59.5t-128 147.5t-65.5 201.5 t-18 226.5q0 614 405 614q80 0 137.5 -17.5t104.5 -48t89 -71.5t89 -88q53 -53 100 -53q51 0 86 34.5t35 86.5q0 33 -22 71q-70 86 -138.5 143.5t-146.5 93.5t-168 50t-203 14q-186 0 -342.5 -61.5t-270.5 -172t-178.5 -265t-64.5 -340.5z" />
<glyph unicode="D" horiz-adv-x="1748" d="M92 1446l2 -1446h778q358 0 570 205q215 205 215 561q0 373 -244 600t-616 227h-557q-59 0 -103.5 -44t-44.5 -103zM541 201v1190h149q166 0 284 -92.5t165 -251.5q31 -104 30 -216h-2q0 -258 -98 -425q-123 -205 -362 -205h-166z" />
<glyph unicode="E" horiz-adv-x="1153" d="M92 1446l2 -1446h914q45 0 78 32q32 30 32 71q0 48 -34 82q-32 32 -76 32h-465v494h534v215h-536v450h458q45 0 77 32t32 77t-33 76.5t-78 31.5h-757q-59 0 -103.5 -44t-44.5 -103z" />
<glyph unicode="F" horiz-adv-x="1146" d="M92 1446l2 -1446h445v684h532v215h-534v477h458q45 0 77 32t32 77t-33 76.5t-78 31.5h-753q-61 0 -104.5 -43t-43.5 -104z" />
<glyph unicode="G" horiz-adv-x="1851" d="M92 797q0 -375 239.5 -608.5t616.5 -233.5q463 0 811 268v482q0 45 -16.5 84.5t-46 69.5t-69.5 46.5t-85 16.5q-47 0 -86 -16.5t-68.5 -46.5t-46 -69.5t-16.5 -84.5v-400q0 -72 -135 -108q-92 -25 -193 -25q-231 0 -338 215q-80 162 -79 420q0 426 211 579q84 59 206 60 q125 0 222 -66q80 -55 155 -172q33 -55 107 -55q55 0 92 37q35 35 35 86q0 118 -174 229q-143 90 -277 115q-94 16 -209 16q-377 0 -616 -233q-240 -231 -240 -606z" />
<glyph unicode="H" horiz-adv-x="1560" d="M94 1393l2 -1393h447v711h479l-2 -512q0 -47 17.5 -88t48 -71t71.5 -47.5t88 -17.5q45 0 86 17.5t71 48.5t47 71t17 87l2 1394h-448l2 -667h-479v467q2 43 -16.5 84t-49.5 73.5t-71 51.5q-37 17 -76 16h-8.5h-8.5q-39 0 -75 -16q-41 -18 -74 -51t-52.5 -74t-17.5 -84z " />
<glyph unicode="I" horiz-adv-x="638" d="M94 0h451v1393q2 43 -16.5 84t-51.5 73.5t-74 51.5q-37 17 -75 16h-8.5h-8.5q-39 0 -77 -16q-42 -18 -73.5 -50t-50 -73t-16.5 -86v-1393z" />
<glyph unicode="J" horiz-adv-x="911" d="M37 -10h172q610 0 610 534v869q0 45 -18.5 86t-49 71.5t-71.5 49t-86 18.5q-47 0 -87 -18.5t-70.5 -49t-48 -71.5t-17.5 -86v-818q0 -180 -39 -258q-53 -111 -199 -110h-96v-217z" />
<glyph unicode="K" horiz-adv-x="1542" d="M94 1393l2 -1393h447v1393q0 45 -17.5 86t-47 71.5t-70.5 49t-86 18.5h-9q-39 0 -76 -16q-42 -18 -74 -50t-51.5 -73t-17.5 -86zM559 791l442 -791h500l-571 1008l375 585h-256z" />
<glyph unicode="L" horiz-adv-x="1167" d="M94 0h1032v217h-583v1176q0 45 -17.5 86t-47 71.5t-70.5 49t-86 18.5h-9q-39 0 -76 -16q-42 -18 -74 -50t-51.5 -73t-17.5 -86v-1393z" />
<glyph unicode="M" horiz-adv-x="1779" d="M92 1593l2 -1593h238v999h2l422 -999h55l420 1010h10v-811q0 -47 17.5 -87t47 -71t69.5 -48.5t87 -17.5q45 0 86 17.5t72 47.5t49.5 70t18.5 87v1396h-443l-344 -835l-356 835h-453z" />
<glyph unicode="N" horiz-adv-x="1458" d="M92 0h238v1169h4l772 -1169h260v1499q0 49 -33 84t-82 35q-51 0 -86 -34t-35 -85v-711h-6l-530 805h-502v-1593z" />
<glyph unicode="O" horiz-adv-x="1880" d="M92 797q0 -356 244 -600q244 -242 604 -242t602 242q246 242 246 600t-246 598q-242 242 -602 241q-360 0 -604 -241q-244 -240 -244 -598zM580 797q0 242 65 415q88 233 295 234q262 0 336 -373q25 -127 24 -276q0 -252 -61 -414q-88 -236 -299 -236q-262 0 -336 373 q-24 123 -24 277z" />
<glyph unicode="P" horiz-adv-x="1468" d="M92 1446l2 -1446h449v643h354q225 0 363 102q154 113 153 334q0 254 -172 389q-156 125 -416 125h-581q-61 0 -106.5 -43t-45.5 -104zM543 860v516h137q129 0 199.5 -70.5t70.5 -199.5q0 -246 -252 -246h-155z" />
<glyph unicode="Q" horiz-adv-x="1882" d="M92 797q0 -295 172 -518q172 -225 455 -295v-252q0 -47 17.5 -87t48 -71t70.5 -48.5t87 -17.5q45 0 86 17.5t71.5 48.5t48 71t17.5 87v254q285 78 453 297q172 223 172 514q0 358 -246 598q-244 242 -604 241q-360 0 -604 -241q-244 -240 -244 -598zM580 797 q0 242 65 415q88 233 295 234q262 0 336 -373q25 -127 24 -276q0 -252 -61 -414q-88 -236 -299 -236q-262 0 -336 373q-24 123 -24 277z" />
<glyph unicode="R" horiz-adv-x="1517" d="M92 1446l2 -1446h447v1401h166q63 0 117.5 -21.5t92 -60.5t59 -93.5t21.5 -117.5q0 -176 -108 -244q-88 -53 -273 -53h-49l396 -811h505l-385 680q166 43 269 151q109 119 108 285q0 209 -182 348q-170 129 -383 129h-651q-61 0 -106.5 -43t-45.5 -104z" />
<glyph unicode="S" horiz-adv-x="1310" d="M92 1096q0 -289 342 -449q41 -18 100.5 -46t115 -63.5t95 -78.5t39.5 -92q0 -195 -204 -195q-141 0 -244 158q-33 55 -84 57h-7q-47 0 -85 -27q-41 -29 -57 -77q-5 -14 -4 -29q0 -35 26 -70q178 -229 518 -229q123 0 228.5 36t182 105.5t121 167.5t44.5 225 q0 121 -46.5 204t-120 142.5t-167.5 102.5t-191 86q-184 82 -184 195q0 203 186 202q154 0 265 -166q33 -47 77 -49h7q41 0 72 23q34 25 45 68q3 11 3 22q0 34 -26 70q-184 248 -498 247q-123 0 -223.5 -38.5t-173 -109.5t-112.5 -170t-40 -222z" />
<glyph unicode="T" horiz-adv-x="1394" d="M43 1485q0 -45 31.5 -77t77.5 -32h323v-1376h449v1376h430v217h-1202q-45 0 -77 -31.5t-32 -76.5z" />
<glyph unicode="U" horiz-adv-x="1458" d="M92 508q0 -180 97.5 -312.5t265.5 -195.5q117 -45 268 -45q281 0 451 121q193 137 192 411v1106h-238v-1067q0 -313 -288 -313q-147 0 -224 83t-77 230v867q0 45 -17.5 86t-48.5 71.5t-72 49t-86 18.5q-47 0 -87 -18.5t-70.5 -49t-48 -71.5t-17.5 -86v-885z" />
<glyph unicode="V" horiz-adv-x="1380" d="M41 1442q-1 -8 -1 -16q0 -36 15 -70l551 -1315q29 -66 107 -66q70 0 104 66l520 1552h-217l-309 -903l-338 799q-63 156 -209 156q-43 0 -82 -15.5t-69.5 -43t-50 -64.5t-21.5 -80z" />
<glyph unicode="W" horiz-adv-x="2064" d="M39 1442q-1 -8 -1 -16q0 -36 15 -70l551 -1315q29 -66 107 -66q70 0 104 66l209 639l268 -639q29 -66 109 -66t102 66l520 1552h-217l-309 -903l-338 799q-63 156 -209 156q-43 0 -82 -15.5t-69.5 -43t-50 -64.5t-21.5 -80q-1 -8 -1 -16q0 -36 15 -70l164 -387l-96 -279 l-338 799q-63 156 -209 156q-43 0 -82 -15.5t-69.5 -43t-50 -64.5t-21.5 -80z" />
<glyph unicode="X" horiz-adv-x="1355" d="M41 0h229l351 530l260 -454q70 -125 204 -125q88 0 160 67q66 66 66 146v14q-2 20 -9.5 41t-17.5 41l-391 688l418 645h-238l-297 -448l-217 381q-70 127 -204 127h-9q-90 -4 -153 -72q-62 -67 -62 -150q0 -45 25 -90l348 -608z" />
<glyph unicode="Y" horiz-adv-x="1345" d="M40 1480q-3 -17 -3 -33q0 -44 22 -85l340 -600v-762h447v791l463 802h-234l-332 -583l-278 493q-25 51 -69 86t-95 48q-28 7 -56 8q-24 0 -48 -6q-53 -11 -97 -52q-49 -45 -60 -107z" />
<glyph unicode="Z" horiz-adv-x="1472" d="M41 0h1278q45 0 76.5 31.5t31.5 77.5q0 45 -31.5 76.5t-76.5 31.5h-643l663 1172q14 37 15 61q0 59 -42 101t-102 42h-1116v-217h735z" />
<glyph unicode="[" horiz-adv-x="657" d="M92 -213h524v141h-196v1798h196v142h-524v-2081z" />
<glyph unicode="\" horiz-adv-x="1456" d="M2 1581q0 -53 41 -117l967 -1466h442l-958 1470q-59 90 -162 154q-113 70 -211 70q-119 -2 -119 -111z" />
<glyph unicode="]" horiz-adv-x="657" d="M41 -43v-141h524v2080h-524v-141h197v-1798h-197z" />
<glyph unicode="^" horiz-adv-x="770" d="M45 1100h148l196 344l199 -344h147l-235 526h-230z" />
<glyph unicode="_" horiz-adv-x="821" d="M0 113v-236h825v236h-825z" />
<glyph unicode="`" horiz-adv-x="874" d="M205 1593l307 -348h147l-225 348h-229z" />
<glyph unicode="a" horiz-adv-x="1368" d="M92 432q0 -113 46 -193.5t122 -133t174 -78t203 -25.5q55 0 96 13.5t90 41.5l4 -57h244q90 0 135 1t57.5 3t12.5 4v625q0 535 -610 534h-459q-41 0 -65.5 -31.5t-24.5 -74.5q0 -106 90 -111h383q127 0 186 -86q-41 -8 -80 -14t-81 -15.5t-89 -20.5t-104 -28 q-70 -27 -130.5 -58.5t-104.5 -73.5t-69.5 -97t-25.5 -125zM479 432q0 84 16.5 132t34.5 87q14 25 33 42.5t51.5 30.5t84 25.5t130.5 26.5v-538q-25 -43 -50 -56q-19 -9 -36 -9q-6 0 -12 1q-53 0 -99 20.5t-80 56.5t-53.5 82t-19.5 99z" />
<glyph unicode="b" horiz-adv-x="1495" d="M92 147q0 -59 44 -103t104 -44h618q150 0 254.5 35t169 104.5t93 173t28.5 240.5q-2 162 -54.5 273.5t-146.5 179t-222 95.5q-105 23 -227 22q-27 0 -55 -1h-155v582h-451v-1557zM541 182v717h170q78 0 123 -30.5t67.5 -81t28.5 -113t8 -125.5h2q-4 -68 -14.5 -134.5 t-36 -117.5t-74.5 -83t-129 -32h-145z" />
<glyph unicode="c" horiz-adv-x="1374" d="M92 567q0 -135 58.5 -246.5t153.5 -191.5t218 -124t254 -44q172 0 292 62.5t216 201.5l23 72q0 57 -42 94t-102 37q-61 0 -108 -53q-41 -41 -66.5 -68.5t-52.5 -44t-60.5 -23t-91.5 -6.5q-68 0 -115.5 30t-78.5 78t-44.5 109.5t-13.5 124.5q0 61 12.5 121t41 106t75 74.5 t113.5 28.5q45 0 81 -12t66.5 -31.5t56.5 -42t50 -43.5q55 -47 109 -47q57 0 101 39t44 96q0 41 -27 80q-55 61 -109 103.5t-113.5 67t-128 34.5t-154.5 10q-133 0 -253 -40t-210 -116.5t-142.5 -186.5t-52.5 -249z" />
<glyph unicode="d" horiz-adv-x="1497" d="M94 553q0 -137 29 -240.5t93.5 -173t168.5 -104.5t254 -35h618q59 0 103.5 44t44.5 103v1555h-451v-580h-155q-31 1 -61 2q-119 0 -223 -20q-130 -25 -225 -91.5t-148 -178.5q-48 -104 -48 -257v-24zM557 549h2q2 63 8 125.5t28.5 113t68 81t122.5 30.5h170v-717h-145 q-80 0 -129 32t-74.5 83t-36 117.5t-14.5 134.5z" />
<glyph unicode="e" horiz-adv-x="1429" d="M92 567q4 -154 54.5 -267.5t140.5 -188t214 -111.5t275 -39q88 0 178 26.5t162 69.5t117 96q43 50 43 97q0 60 -44 98q-42 37 -99 37q-53 0 -81 -24.5t-58.5 -53t-77.5 -52.5q-42 -22 -118 -22h-14q-111 4 -173 68t-72 193h817l6 10q3 36 3 70q0 114 -32 208 q-41 123 -124 206t-200.5 127t-258.5 44q-133 0 -254 -40t-212 -116.5t-144 -186.5q-48 -102 -48 -229v-20zM553 725q51 180 221 180q98 0 164 -47q39 -29 53.5 -59.5t24.5 -73.5h-463z" />
<glyph unicode="f" horiz-adv-x="1040" d="M41 850h149v-850h443v850h235q96 0 97 113q0 47 -26 84.5t-71 37.5h-235q4 61 13 118t26 91q53 109 198 109h158v217h-233q-305 -4 -456 -141.5t-155 -393.5h-143v-235z" />
<glyph unicode="g" horiz-adv-x="1492" d="M92 567q0 -111 21.5 -214t77 -182t149.5 -125t240 -46l376 -2q0 -68 -2 -108q-1 -20 -1 -36t1 -28q0 -10 1 -19q0 -74 -15 -116q-16 -47 -47 -67.5t-75 -22.5t-95 -2h-465v-217h541q324 0 463 135t139 460v996q0 59 -44 103t-104 44h-616q-150 0 -254 -36.5 t-168.5 -107.5t-93.5 -173.5t-29 -235.5zM555 571q0 29 3 74t11.5 90t21.5 84t32 55q70 63 186 64h143v-717q-90 0 -146 1t-91 6t-56.5 16.5t-42.5 29.5q-14 12 -26 52.5t-20.5 87.5t-12.5 91q-3 29 -3 49q0 9 1 17z" />
<glyph unicode="h" d="M92 0l445 2v897q90 0 141 -1t83 -6t55.5 -16.5t57.5 -29.5q29 -18 44.5 -60.5t22.5 -88.5t8 -86t1 -54v-557h449v553q0 59 -1 107.5t-10.5 91.5t-28 82.5t-52.5 83.5q-63 78 -128 119.5t-138.5 60t-158.5 21.5t-188 3h-155v582h-447v-1704z" />
<glyph unicode="i" horiz-adv-x="636" d="M92 4h451v918q2 45 -16.5 86t-51.5 71.5t-74 49t-84 18.5q-45 0 -86 -18.5t-71.5 -49t-49 -71.5t-18.5 -86v-918zM117 1497q0 -82 57 -135t139 -53q39 0 75 14t63.5 40t43 59.5t15.5 74.5q0 86 -55.5 145.5t-141.5 59.5t-141 -59.5t-55 -145.5z" />
<glyph unicode="j" horiz-adv-x="630" d="M-244 -270v-217h172q610 0 611 534v868q0 45 -18.5 86t-49.5 72t-72 49.5t-86 18.5q-47 0 -87 -18.5t-70.5 -49.5t-48 -71.5t-17.5 -86.5v-817q0 -182 -39 -260q-53 -109 -198 -108h-97zM113 1497q0 -82 57 -135t139 -53q39 0 75 14t63.5 40t43 59.5t15.5 74.5 q0 86 -55.5 145.5t-141.5 59.5t-141 -59.5t-55 -145.5z" />
<glyph unicode="k" horiz-adv-x="1316" d="M94 0h445l4 1477q0 45 -18.5 86t-49.5 71.5t-72 49t-86 18.5t-86 -18.5t-71.5 -49t-48 -71.5t-17.5 -86v-1477zM543 567l362 -567h412l-469 723l307 420h-211z" />
<glyph unicode="l" horiz-adv-x="634" d="M92 1481l2 -1481h445v1481q0 45 -17.5 86t-48.5 71.5t-71 49t-85 18.5t-86 -18.5t-71.5 -49t-49 -71.5t-18.5 -86z" />
<glyph unicode="m" horiz-adv-x="2310" d="M92 0l445 2v815q29 33 64.5 78t82.5 63q34 12 64 12q32 0 58 -14q50 -27 82 -86t47 -142t15 -171l-2 -420q2 -41 24.5 -67.5t56.5 -44t75 -23.5t78 -6q88 0 150.5 36t64.5 105v416v88q0 39 -2 69.5t-8.5 56.5t-16.5 50q31 49 87 88t114 39q39 0 77 -19.5t67.5 -51 t45.5 -74.5q13 -34 13 -70v-18q0 -35 1 -67t1 -87t-1 -148.5t-1 -250.5q2 -41 23.5 -71t54 -49.5t72.5 -28.5t79 -9t77 9t67.5 28.5t49 49.5t21.5 71v315q0 121 -2 190.5t-5 99.5t-9 46q-29 70 -67 132.5t-94 110.5t-133 80.5t-182 45.5q-29 4 -57 3q-48 0 -95 -11 q-75 -17 -139.5 -48.5t-112.5 -70.5t-71 -70q-51 51 -106 96t-122 74t-147 34q-13 1 -27 1q-70 0 -155 -23q-66 -27 -104.5 -70.5t-50.5 -64.5v141h-447v-1169z" />
<glyph unicode="n" d="M92 0l445 2v856q23 39 56.5 59.5t66 29.5t58 10t30.5 1q61 -2 101 -23.5t62.5 -67.5t31.5 -121.5t9 -188.5v-412q0 -41 21.5 -69.5t53.5 -46t72 -25.5t77 -8t76.5 8t71.5 25.5t52.5 46t20.5 69.5v244v162q0 63 -1 98t-2 53.5t-2 26.5t-3 19q-18 100 -59.5 180t-112 135 t-175 86t-247.5 35q-16 0 -46 -4t-66 -15.5t-75 -30t-71 -49.5v84h-445v-1169z" />
<glyph unicode="o" horiz-adv-x="1452" d="M51 584q0 -133 55.5 -247t149.5 -196t215 -127q111 -41 232 -41h22h22q119 0 231 41q122 45 216 127t149.5 196t55.5 247q0 137 -55.5 249.5t-148.5 192.5t-215 124t-255 44t-255 -44t-215 -124t-148.5 -192.5t-55.5 -249.5zM498 584q0 190 60 287.5t167 97.5 q41 0 82 -15.5t72.5 -58.5t52 -118t20.5 -193q0 -190 -60.5 -287.5t-166.5 -97.5t-166.5 97.5t-60.5 287.5z" />
<glyph unicode="p" horiz-adv-x="1472" d="M92 -618h447v675h155q143 0 271.5 29t224.5 95.5t152.5 175t56.5 270.5q0 133 -29 235.5t-93.5 173t-168.5 107.5t-254 37h-614q-59 0 -103.5 -44t-44.5 -104v-1650zM537 281v716h145q80 0 132 -30.5t82 -81.5t41 -118t11 -136h-2q0 -13 1 -26q0 -51 -7 -100 q-8 -62 -33.5 -112.5t-74 -81t-125.5 -30.5h-170z" />
<glyph unicode="q" horiz-adv-x="1474" d="M76 608q0 -162 56 -270.5t152.5 -175t224.5 -95t271 -28.5h156v-655h446v1630q0 59 -44 103t-103 44h-614q-150 0 -254.5 -37t-169 -107.5t-93 -173t-28.5 -235.5zM526 612q0 70 11.5 136.5t41 118t82 82t132.5 30.5h145v-717h-170q-78 0 -126 31t-73.5 81t-33.5 112 q-7 50 -7 101v25h-2z" />
<glyph unicode="r" horiz-adv-x="1171" d="M92 0l443 2v754q10 88 38 121q43 47 134 47q43 0 77.5 -23.5t68.5 -52.5t67.5 -52.5t74.5 -23.5q35 0 67 18.5t55.5 47t36.5 63.5t13 68q0 41 -27.5 72.5t-71.5 55t-98.5 39t-106.5 23.5t-98 9q-7 0 -13 1q-37 0 -60 -6q-43 -10 -83 -28.5t-74 -53.5v86h-443v-1167z" />
<glyph unicode="s" horiz-adv-x="1091" d="M76 764q0 -211 286 -326q29 -12 73 -27.5t85 -35t69.5 -44t28.5 -52.5q0 -100 -131 -101q-31 0 -67.5 22.5t-73.5 49t-71.5 49.5t-61.5 23q-35 0 -65.5 -17.5t-48 -45.5t-17.5 -60q0 -31 27 -62q147 -162 428 -162h14q84 0 164 22q86 24 153.5 73t108.5 121.5t41 168.5 q0 221 -295 332q-39 14 -85 29.5t-85 34t-65.5 40t-26.5 50.5q0 104 119 106q45 0 83.5 -21.5t73.5 -49t64.5 -50t56.5 -22.5q47 0 81 28q36 29 36 79q0 47 -43 90q-45 45 -111.5 77.5t-144.5 52.5q-70 18 -128 17h-11q-92 -2 -175 -27.5t-146.5 -73.5t-101.5 -120t-38 -168 z" />
<glyph unicode="t" horiz-adv-x="964" d="M41 858h139l2 -858l451 2v856h235q96 0 97 113q0 47 -26 85t-71 38h-241v307q0 45 -18.5 86t-49.5 71.5t-70.5 49t-85.5 18.5q-47 0 -88 -17.5t-71.5 -48t-48 -71.5t-17.5 -88v-307h-137v-236z" />
<glyph unicode="u" d="M94 616q0 -63 1 -99t2 -55.5t2 -27.5t3 -18q18 -100 59.5 -180t112 -135.5t175 -87t247.5 -33.5q16 0 46 4t66 15t74 29.5t72 49.5v-78h445v1169h-445v-864q-23 -39 -56.5 -59.5t-66 -29.5t-58 -10t-30.5 -1q-61 2 -101 23.5t-62.5 67.5t-31.5 122t-9 188v416 q0 41 -21.5 69.5t-53.5 46t-72 25.5t-77 8t-76.5 -8t-71.5 -25.5t-52.5 -46t-20.5 -69.5v-244v-162z" />
<glyph unicode="v" horiz-adv-x="1116" d="M11 1080q-8 -18 -8 -37q0 -27 15 -58l471 -936q25 -47 93 -47q59 0 88 47l446 1104h-186l-264 -643l-289 569q-20 41 -56 69t-77 38q-23 6 -47 5q-19 0 -39 -3q-45 -8 -84 -37q-44 -29 -63 -71z" />
<glyph unicode="w" horiz-adv-x="1800" d="M14 1059q-5 -17 -5 -35q0 -33 18 -68l477 -895q31 -61 117 -61q80 0 116 61l158 379l203 -379q33 -61 121 -61t114 63l467 1098h-252l-250 -577l-264 489q-25 49 -66.5 79t-89.5 39q-23 4 -47 4q-26 0 -53 -5q-51 -10 -96 -41q-53 -35 -71 -87q-7 -20 -6 -40 q0 -33 18 -66l133 -251l-51 -121l-265 489q-27 49 -68.5 79t-91.5 39q-23 4 -46 4q-28 0 -57 -6q-52 -11 -97 -44q-52 -37 -66 -86z" />
<glyph unicode="x" horiz-adv-x="1193" d="M4 -2l264 2l275 350l223 -276q31 -37 76 -59.5t93 -28.5q16 -2 32 -2l64 8q48 12 89 45q53 41 64 95q2 10 2 21q0 43 -35 85l-356 440l360 465h-272l-230 -295l-184 227q-31 37 -73 60.5t-88 29.5q-17 2 -35 3q-29 0 -59 -7q-48 -10 -87 -39q-57 -39 -71 -97 q-3 -14 -3 -28q0 -43 31 -84l315 -389z" />
<glyph unicode="y" horiz-adv-x="1492" d="M92 313q2 -80 44 -138t128 -97t218 -58.5t315 -19.5h155q5 -49 6 -97q0 -24 -2 -48q-4 -72 -29.5 -128.5t-74.5 -91t-129 -34.5h-186v-217h262q324 0 463 135t139 461v1167h-447v-924h-170q-96 0 -156.5 41t-64.5 152q-3 90 -3 182q0 46 1 92q1 70 1 140.5t-1 142.5 q0 43 -21.5 76.5t-54 57t-73.5 35t-80 11.5q-41 0 -84 -11.5t-78 -33t-56.5 -54t-21.5 -77.5v-664z" />
<glyph unicode="z" horiz-adv-x="1130" d="M14 0h1012q16 0 34.5 11.5t35 27.5t27 34.5t10.5 35.5q0 16 -1.5 35.5t-9.5 36t-23.5 27.5t-43.5 11h-463l448 780q6 14 8.5 25.5t2.5 19.5q0 43 -30 73t-73 30h-895v-221h508z" />
<glyph unicode="{" horiz-adv-x="729" d="M0 797h164v-1010h524v141h-196v1798h196v142h-524v-836h-164v-235z" />
<glyph unicode="|" horiz-adv-x="462" d="M68 -213h329l-2 2081h-327v-2081z" />
<glyph unicode="}" horiz-adv-x="780" d="M41 -43v-141h524v964h215v236h-215v880h-524v-141h197v-1798h-197z" />
<glyph unicode="~" horiz-adv-x="829" d="M16 1180l93 -15q8 23 23 47.5t35.5 43t46.5 27.5t56 1l29 -17q29 -17 69 -40t84 -42.5t76 -23.5q121 -16 198 56.5t93 216.5l-76 10q-16 -29 -30.5 -54.5t-32.5 -44t-43 -25.5t-57 1q-8 2 -46 23.5t-84.5 46t-86 45t-50.5 20.5q-209 31 -297 -276z" />
<glyph unicode="&#xa1;" horiz-adv-x="491" d="M49 1184q0 -86 55.5 -145.5t141.5 -59.5t141 59.5t55 145.5q0 82 -57 135t-139 53q-41 0 -76 -14.5t-62.5 -40t-43 -60t-15.5 -73.5zM51 -123q0 -195 195 -194q195 0 194 194q0 20 -5 60t-15 102l-148 879h-53l-147 -879q-10 -61 -15.5 -101.5t-5.5 -60.5z" />
<glyph unicode="&#xa2;" horiz-adv-x="1374" d="M92 852q0 -266 213 -442q145 -121 334 -152l-39 -258h109l36 246h31q172 0 292 62.5t216 201.5q23 35 23 72q0 57 -42 94t-102 37q-61 0 -108 -54q-41 -41 -66.5 -68.5t-51.5 -44t-59.5 -22.5t-89.5 -6l101 645q41 -20 74.5 -48t64.5 -54q55 -47 109 -47q57 0 101 39 t44 96q0 41 -27 80q-104 121 -225 170q-23 10 -47.5 17t-52.5 11l37 232h-109l-35 -217q-16 2 -37 2h-36q-279 0 -461 -156q-197 -164 -197 -436zM532 860q0 139 52 223q63 106 190 107h10l-100 -651q-61 29 -96 90q-56 92 -56 231z" />
<glyph unicode="&#xa4;" horiz-adv-x="1722" d="M92 797q0 -373 262 -623q256 -244 633 -244q227 0 383 90q147 86 272 285q18 27 19 62q0 47 -34 79.5t-81 32.5q-61 0 -94 -51q-86 -133 -174 -184q-119 -72 -281 -72q-231 0 -338 215l-12 25q-6 12 -10 26h506v236h-557q-6 61 -6 133v51q0 27 2 51h659v236h-618 q88 276 362 276q211 0 344 -133q31 -39 49.5 -61.5t26.5 -30.5q53 -53 100 -53q51 0 86 34.5t35 86.5q0 33 -22 71q-131 168 -287 238q-141 63 -369 63q-377 0 -616 -233q-240 -231 -240 -606z" />
<glyph unicode="&#x20ac;" horiz-adv-x="1722" d="M92 797q0 -373 262 -623q256 -244 633 -244q227 0 383 90q147 86 272 285q18 27 19 62q0 47 -34 79.5t-81 32.5q-61 0 -94 -51q-86 -133 -174 -184q-119 -72 -281 -72q-231 0 -338 215l-12 25q-6 12 -10 26h506v236h-557q-6 61 -6 133v51q0 27 2 51h659v236h-618 q88 276 362 276q211 0 344 -133q31 -39 49.5 -61.5t26.5 -30.5q53 -53 100 -53q51 0 86 34.5t35 86.5q0 33 -22 71q-131 168 -287 238q-141 63 -369 63q-377 0 -616 -233q-240 -231 -240 -606z" />
<glyph unicode="&#xa5;" horiz-adv-x="1345" d="M40 1479.5q-11 -62.5 19 -117.5l263 -465h-234v-235h311v-236h-311v-236h311v-190h447v190h309v236h-309v236h309v235h-248l402 696h-234l-332 -583l-278 493q-25 51 -69 86t-95 48.5t-104.5 2t-96.5 -52.5q-49 -45 -60 -107.5z" />
<glyph unicode="&#xa6;" horiz-adv-x="462" d="M68 -213h329l-2 827h-327v-827zM68 1126h327v742h-327v-742z" />
<glyph unicode="&#xa7;" horiz-adv-x="1226" d="M76 580q0 -211 286 -326q29 -12 73 -27.5t85 -35t69.5 -44t28.5 -53.5q0 -100 -131 -100q-31 0 -67.5 22.5t-73.5 49t-71.5 49t-61.5 22.5q-35 0 -65.5 -17.5t-48 -45t-17.5 -60.5q0 -31 27 -61q147 -162 428 -162q92 -2 178 21.5t153.5 72.5t108.5 122t41 169 q0 117 -84 205q102 45 168.5 130t66.5 210q0 221 -295 332q-39 14 -85 29.5t-84.5 34t-65.5 40t-27 49.5q0 104 119 107q45 0 84 -21.5t74 -49.5t64.5 -50.5t56.5 -22.5q47 0 80.5 28t35.5 75q2 49 -43 94t-111.5 78t-144 52.5t-139.5 16.5q-92 -2 -175 -27.5t-146.5 -73.5 t-101.5 -119.5t-38 -168.5q0 -115 84 -202q-104 -43 -169.5 -128t-65.5 -214zM461 662q0 104 119 106q31 0 64.5 -14.5t61 -35t46 -43t18.5 -36.5q0 -100 -135 -100q-16 8 -45 19t-57.5 25.5t-50 34t-21.5 44.5z" />
<glyph unicode="&#xa8;" horiz-adv-x="868" d="M174 1425q0 -45 32 -73.5t75 -28.5q45 0 76.5 29.5t31.5 72.5q0 47 -30.5 80t-77.5 33q-45 0 -76 -33t-31 -80zM473 1425q0 -45 32 -73.5t79 -28.5q43 0 74.5 29.5t31.5 72.5q0 47 -30.5 80t-75.5 33q-47 0 -79 -33t-32 -80z" />
<glyph unicode="&#xa9;" horiz-adv-x="2017" d="M70 915q0 -190 76.5 -357t206.5 -290t302 -193.5t363 -70.5q190 0 361 70.5t300 193.5t206 290t77 357t-59.5 357.5t-178 290.5t-296 193.5t-410.5 68.5q-190 -2 -362.5 -73t-302.5 -193.5t-206.5 -288t-76.5 -355.5zM193 913q0 168 67.5 313.5t181 253t265 169 t319.5 59.5q205 -2 360.5 -63.5t260 -168t156.5 -251t52 -312.5q0 -166 -66.5 -311t-180 -252.5t-264 -169t-318.5 -61.5q-106 -12 -211.5 17.5t-200 87t-174.5 138t-137 172t-86.5 189.5t-23.5 190zM387 924q0 -266 213 -443q201 -164 471 -164q172 0 292 62.5t216 202.5 q23 35 23 71q0 57 -42 94t-102 37q-61 0 -108 -53q-41 -41 -67 -68.5t-52.5 -44t-60 -22.5t-91.5 -6q-129 0 -196 110q-55 92 -56 232q0 139 52 223q63 106 190 107q45 0 81 -12.5t66.5 -32t56 -42t50.5 -42.5q55 -47 109 -48q57 0 101 39t44 97q0 41 -27 79 q-104 121 -225 170q-109 45 -281 46q-279 0 -460 -156q-197 -164 -197 -436z" />
<glyph unicode="&#xaa;" horiz-adv-x="823" d="M41 846h149v-846h443v1081q6 125 39 191q53 109 198 108h84v217h-159q-604 -8 -611 -516h-143v-235z" />
<glyph unicode="&#xab;" horiz-adv-x="841" d="M63 424l349 -236v148l-228 199l228 196v148l-349 -226v-229zM430 432l348 -235v147l-227 199l227 196v148l-348 -225v-230z" />
<glyph unicode="&#xac;" horiz-adv-x="2097" d="M37 1348h100l8 118h224v-641h-285v-833h1688q68 0 121 17.5t89.5 48t56 70.5t19.5 85q0 88 -46 139t-122 76q51 25 83 71t32 109q0 35 -8 64.5t-31 56.5h6v287h-96l-8 -191h-598v385h-473v256h108v99h-850zM184 90v639h287v737h221v-354h475v-285h-108v-98h4l154 -381 h-394l-41 -96h471l66 -162h-1135zM692 829l27 -364h98l25 364h-150zM1163 729h545q61 0 98 -13.5t58.5 -32.5t29 -40.5t7.5 -38.5q0 -57 -51.5 -95t-123.5 -38h-233v-98h211q16 0 57 -3t83 -16.5t75 -43t33 -83.5q0 -53 -25.5 -80.5t-65.5 -41t-86 -15.5t-89 -2h-254v2h-7z M1358 1110h313v-104h96v309h-96v-107h-211v256h395l17 -188h94l-6 287h-602v-453z" />
<glyph unicode="&#xad;" horiz-adv-x="786" d="M92 575h602v236h-602v-236z" />
<glyph unicode="&#xae;" horiz-adv-x="1290" d="M70 1268q0 -117 47 -219.5t127 -178t185.5 -118.5t221.5 -43q117 0 222.5 43t185.5 118.5t127 178t47 219.5t-37 219t-109.5 178t-182 119t-253.5 43q-117 0 -222 -44t-185 -120t-127 -177t-47 -218zM145 1266q0 102 41 192t112 155.5t163 103.5t196 38q127 -2 222.5 -40 t160 -103.5t96 -154.5t31.5 -191t-41 -191.5t-110.5 -155t-162.5 -103.5t-196 -38q-98 -10 -192 33t-168 115.5t-116 164t-36 175.5zM365 1589l2 -661h204v641h74q59 0 97 -38t38 -97q0 -80 -49 -111q-41 -25 -125 -25h-22l180 -370h231l-176 311q74 18 123 69.5t49 131.5 q0 94 -84 157q-72 59 -174 60h-299q-29 0 -49 -19.5t-20 -48.5z" />
<glyph unicode="&#xaf;" horiz-adv-x="856" d="M92 1286h672v164h-672v-164z" />
<glyph unicode="&#x2c9;" horiz-adv-x="856" d="M92 1286h672v164h-672v-164z" />
<glyph unicode="&#xb0;" horiz-adv-x="702" d="M92 1343q-2 -53 18.5 -101t57.5 -83t85 -55.5t99 -20.5q53 0 100.5 20.5t82 56.5t55 83t20.5 100t-20.5 100.5t-55 82.5t-81.5 55.5t-101 20.5q-51 0 -99 -20.5t-85 -55.5t-57.5 -82.5t-18.5 -100.5zM213 1343q0 57 41 97.5t98 40.5t97 -40t40 -98q0 -57 -39.5 -98 t-97.5 -41q-57 0 -98 41t-41 98z" />
<glyph unicode="&#xb1;" horiz-adv-x="1032" d="M47 80h930v235h-930v-235zM49 780h293v-356h322v356h315v236h-313v254q0 35 -11.5 71.5t-32 66.5t-50 49.5t-68.5 19.5t-68.5 -19.5t-51.5 -49.5t-33 -66.5t-11 -71.5v-254h-291v-236z" />
<glyph unicode="&#xb2;" horiz-adv-x="1667" d="M41 858h139l2 -858l451 2v856h221l2 -858l451 2v856h235q96 0 96 113q0 47 -25.5 85t-70.5 38h-242v268q0 45 -18 86t-49 71.5t-71 49t-85 18.5q-47 0 -88 -17.5t-71.5 -48t-48 -71.5t-17.5 -88v-268h-225v268q0 45 -18.5 86t-49.5 71.5t-70.5 49t-85.5 18.5 q-47 0 -88 -17.5t-71.5 -48t-48 -71.5t-17.5 -88v-268h-137v-236z" />
<glyph unicode="&#xb3;" horiz-adv-x="1722" d="M92 797q0 -188 69.5 -347t191.5 -274t285 -180.5t349 -65.5q117 0 210 21.5t172 66.5t145.5 117t127.5 170q18 27 19 62q0 47 -34 79.5t-81 32.5q-61 0 -94 -51q-45 -70 -92 -117t-100.5 -77.5t-118 -45t-144.5 -16.5q-106 2 -181 45t-123 112.5t-73.5 160t-33.5 186.5 h770v235h-774q33 510 403 510q80 0 137.5 -17.5t104.5 -48t89 -71.5t89 -88q53 -53 100 -53q51 0 86 34.5t35 86.5q0 33 -22 71q-70 86 -138.5 143.5t-146.5 93.5t-168 50t-203 14q-186 0 -342.5 -61.5t-270.5 -172t-178.5 -265t-64.5 -340.5z" />
<glyph unicode="&#xb4;" horiz-adv-x="874" d="M270 1245h148l307 348h-229z" />
<glyph unicode="&#xb5;" d="M94 -387h447l-2 381q35 -6 74.5 -9t82.5 -5q16 0 46 4t66 15t74 29.5t72 49.5v-78h445v1169h-445v-864q-23 -39 -56.5 -59.5t-66 -29.5t-58 -10t-30.5 -1q-61 2 -101 23.5t-62.5 67.5t-31.5 122t-9 188v416q0 41 -21.5 69.5t-53.5 46t-72 25.5t-77 8t-76.5 -8 t-71.5 -25.5t-52.5 -46t-20.5 -69.5v-1409z" />
<glyph unicode="&#x3bc;" d="M94 -387h447l-2 381q35 -6 74.5 -9t82.5 -5q16 0 46 4t66 15t74 29.5t72 49.5v-78h445v1169h-445v-864q-23 -39 -56.5 -59.5t-66 -29.5t-58 -10t-30.5 -1q-61 2 -101 23.5t-62.5 67.5t-31.5 122t-9 188v416q0 41 -21.5 69.5t-53.5 46t-72 25.5t-77 8t-76.5 -8 t-71.5 -25.5t-52.5 -46t-20.5 -69.5v-1409z" />
<glyph unicode="&#xb6;" horiz-adv-x="1474" d="M76 891q0 -203 87 -324t228 -180v-760h451v1530h174v-1530h219v1669q0 59 -44 103.5t-104 44.5h-466q-150 0 -254.5 -37t-169 -107.5t-93 -173t-28.5 -235.5zM221 1100l4 57h228v-27h-29v-67h127v-105h160l2 52h24v-76h-2q12 -16 13 -31q0 -35 -33 -49q47 -14 47 -59 q0 -23 -20.5 -40.5t-57.5 -17.5h-451v221h76v172h-59l-2 -30h-27zM260 764v170h78v196h57v-94h127v-75h-28v-27l43 -103h-107l-10 -24h127l16 -43h-303zM395 961l8 -99h27l6 99h-41zM522 934h146q33 0 42 -11.5t9 -21.5q0 -16 -14.5 -26.5t-32.5 -10.5h-62v-26h56q4 0 15 -1 t22.5 -4.5t20.5 -11.5t9 -22q0 -27 -24.5 -31t-46.5 -4h-70zM573 1036v121h162v-76h-24l-4 49h-107v-67h57v29h25v-84h-25v28h-84z" />
<glyph unicode="&#xb7;" horiz-adv-x="577" d="M102 819q0 -82 57.5 -135t139.5 -53q39 0 75 14t63.5 40t43 59.5t15.5 74.5q0 86 -55.5 145.5t-141.5 59.5t-141.5 -59.5t-55.5 -145.5z" />
<glyph unicode="&#xb8;" horiz-adv-x="354" d="M47 25l117 -476l24 7q45 164 70 256t36 137t13 57t2 19h-262z" />
<glyph unicode="&#xb9;" horiz-adv-x="1757" d="M41 883h149v-883h443v883h262v-883h442v883h236q96 0 96 112q0 47 -25.5 85t-70.5 38h-236q6 125 39 191q53 109 199 108h158v217h-234q-604 -8 -610 -516h-256q6 125 39 191q53 109 198 108h45v217h-120q-604 -8 -611 -516h-143v-235z" />
<glyph unicode="&#xba;" horiz-adv-x="1110" d="M104 1106q0 -94 35 -174t96.5 -138.5t142.5 -91t173 -32.5t174 32.5t143.5 91t98.5 138.5t37 174q0 90 -36 174t-97.5 147.5t-144.5 99.5t-175 34q-92 2 -174 -35t-142.5 -100.5t-95.5 -146.5t-35 -173zM121 334h878v235h-878v-235zM408 1116q0 61 5 112.5t21.5 90.5 t45 64.5t75.5 35.5q147 0 147 -303q0 -305 -147 -305t-147 305z" />
<glyph unicode="&#xbb;" horiz-adv-x="841" d="M66 197v147l227 199l-227 196v148l348 -225v-230zM432 188v148l227 199l-227 196v148l348 -226v-229z" />
<glyph unicode="&#xbc;" horiz-adv-x="1910" d="M41 887h149v-887h443v887l461 2v-891h450l2 891h236q96 0 96 112q0 47 -25.5 85t-70.5 38h-242v269q0 45 -18.5 86t-49 71.5t-70.5 49t-85 18.5q-47 0 -88 -17.5t-72 -48t-48 -71.5t-17 -88v-269l-459 -2q6 119 41 189q53 109 198 108h158v217h-233q-606 -10 -613 -514 h-143v-235z" />
<glyph unicode="&#xbd;" horiz-adv-x="2072" d="M39 872h149v-872h443v872h248v-872h442v872h233v-872h451v944q2 45 -16.5 86t-51 72t-73.5 49t-84 18q-51 0 -95.5 -21.5t-76.5 -57.5q-10 8 -22.5 13t-29.5 5h-235q6 125 39 190q53 109 199 109h157v217h-233q-604 -8 -611 -516h-241q6 125 39 190q53 109 198 109h29 v217h-104q-604 -8 -611 -516h-143v-236z" />
<glyph unicode="&#xbe;" horiz-adv-x="2191" d="M29 930h149v-930h443v930h229v-930h442v930h236q96 0 96 112q0 47 -25.5 85t-70.5 38h-236q6 125 39 191q51 104 199 108h145v-1462h447v1473q0 45 -17.5 86t-48.5 71.5t-70.5 49t-84.5 18.5q-49 0 -89 -19h-358q-604 -8 -610 -516h-223q6 125 38 191q53 109 199 108h29 v217h-105q-604 -8 -610 -516h-143v-235z" />
<glyph unicode="&#xbf;" horiz-adv-x="1087" d="M39 104q0 -100 35 -178t94 -134t136 -89t163 -42t174 6.5t168 56.5q121 61 180.5 169.5t54.5 243.5q-2 47 -33.5 73t-68.5 27t-68.5 -24t-31.5 -74q6 -53 -9.5 -105t-47 -94t-77.5 -68t-102 -26q-88 0 -148.5 52.5t-60.5 138.5q6 61 26.5 103t51.5 77t73 70t93 84 q86 82 86 184q0 6 -2 14.5t-8 37t-18.5 90t-34.5 175.5h-134q-8 -66 -31.5 -138t-95.5 -130q-80 -63 -146.5 -111.5t-115.5 -100.5t-75.5 -120t-26.5 -168zM399 1159q0 -41 15.5 -78t42 -65.5t62.5 -45t77 -16.5q86 0 141.5 59.5t55.5 145.5q0 82 -57.5 135.5t-139.5 53.5 q-39 0 -75 -14.5t-62.5 -40t-43 -60.5t-16.5 -74z" />
<glyph unicode="&#xc0;" horiz-adv-x="1456" d="M94 94q0 -51 35 -85t86 -34q49 0 82 35t33 84v522h590v-616h444v1083q0 180 -96.5 312.5t-263.5 195.5q-117 45 -269 45q-285 0 -452 -118q-189 -132 -189 -401v-11v-1012zM328 819v248q4 311 288 311q305 0 302 -311v-248h-590zM398 2044l307 -348h147l-225 348h-229z " />
<glyph unicode="&#xc1;" horiz-adv-x="1456" d="M94 94q0 -51 35 -85t86 -34q49 0 82 35t33 84v522h590v-616h444v1083q0 180 -96.5 312.5t-263.5 195.5q-117 45 -269 45q-285 0 -452 -118q-189 -132 -189 -401v-11v-1012zM328 819v248q4 311 288 311q305 0 302 -311v-248h-590zM518 1706h148l307 348h-229z" />
<glyph unicode="&#xc2;" horiz-adv-x="1456" d="M94 94q0 -51 35 -85t86 -34q49 0 82 35t33 84v522h590v-616h444v1083q0 180 -96.5 312.5t-263.5 195.5q-117 45 -269 45q-285 0 -452 -118q-189 -132 -189 -401v-11v-1012zM328 819v248q4 311 288 311q305 0 302 -311v-248h-590zM328 1700h148l196 228l199 -228h147 l-235 348h-230z" />
<glyph unicode="&#xc3;" horiz-adv-x="1456" d="M94 94q0 -51 35 -85t86 -34q49 0 82 35t33 84v522h590v-616h444v1083q0 180 -96.5 312.5t-263.5 195.5q-117 45 -269 45q-285 0 -452 -118q-189 -132 -189 -401v-11v-1012zM328 819v248q4 311 288 311q305 0 302 -311v-248h-590zM289 1739l90 -10q8 18 22.5 37.5t35 35 t45 22.5t53.5 1l28 -14q29 -14 68 -33t82 -35t73 -18q117 -14 193 46t92 177l-74 8q-14 -23 -28.5 -44.5t-32.5 -35.5t-42 -20.5t-56 0.5q-8 2 -45 19.5t-81 36.5t-83 36.5t-49 17.5q-207 25 -291 -227z" />
<glyph unicode="&#xc4;" horiz-adv-x="1456" d="M94 94q0 -51 35 -85t86 -34q49 0 82 35t33 84v522h590v-616h444v1083q0 180 -96.5 312.5t-263.5 195.5q-117 45 -269 45q-285 0 -452 -118q-189 -132 -189 -401v-11v-1012zM328 819v248q4 311 288 311q305 0 302 -311v-248h-590zM434 1843q0 -45 32 -73.5t75 -28.5 q45 0 76.5 29.5t31.5 72.5q0 47 -30.5 80t-77.5 33q-45 0 -76 -33t-31 -80zM733 1843q0 -45 32 -73.5t79 -28.5q43 0 74.5 29.5t31.5 72.5q0 47 -30.5 80t-75.5 33q-47 0 -79 -33t-32 -80z" />
<glyph unicode="&#xc5;" horiz-adv-x="1456" d="M94 94q0 -51 35 -85t86 -34q49 0 83 35t34 84l-2 522h590l2 -616h442v1083q0 180 -96.5 312.5t-263.5 195.5q-117 45 -269 45q-285 0 -452 -118q-193 -135 -189 -412v-1012zM328 819v248q4 311 288 311q305 0 302 -311v-248h-590zM457 1962q0 -109 75.5 -184.5 t184.5 -75.5t182 76q76 76 76 184q0 106 -76 182t-182 76q-109 0 -184.5 -76t-75.5 -182zM578 1962q0 57 40.5 97t98.5 40q57 0 97 -40t40 -97t-40 -98t-97 -41t-98 41t-41 98z" />
<glyph unicode="&#xc6;" horiz-adv-x="1937" d="M94 94q0 -51 35 -85t86 -34q49 0 83 35t34 84l-2 522h588v-616h868q45 0 78.5 31.5t31.5 77t-33.5 77t-76.5 31.5h-465v494h534v215h-536v450h459q45 0 76.5 32t31.5 77t-32.5 76.5t-77.5 31.5h-326h-211q-82 0 -124 -1t-62 -1t-28.5 -1t-20.5 -1q-33 -2 -65 5.5 t-64.5 16.5t-67.5 17t-72 8q-285 0 -452 -118q-193 -135 -189 -412v-1012zM328 819v248q4 311 288 311q305 0 302 -311v-248h-590z" />
<glyph unicode="&#xc7;" horiz-adv-x="1722" d="M92 797q0 -166 55.5 -310.5t153.5 -257t232.5 -186.5t291.5 -98l115 -484l25 7q45 164 69.5 256t35.5 137t13 56t2 17q188 16 317.5 105.5t239.5 265.5q18 27 19 62q0 47 -34 79.5t-81 32.5q-61 0 -94 -51q-45 -70 -92 -117t-100.5 -77.5t-118 -45t-144.5 -16.5 q-125 2 -205.5 59.5t-128 147.5t-65.5 201.5t-18 226.5q0 614 405 614q80 0 137.5 -17.5t104.5 -48t89 -71.5t89 -88q53 -53 100 -53q51 0 86 34.5t35 86.5q0 33 -22 71q-70 86 -138.5 143.5t-146.5 93.5t-168 50t-203 14q-186 0 -342.5 -61.5t-270.5 -172t-178.5 -265 t-64.5 -340.5z" />
<glyph unicode="&#xc8;" horiz-adv-x="1153" d="M92 1446l2 -1446h914q45 0 78 32q32 30 32 71q0 48 -34 82q-32 32 -76 32h-465v494h534v215h-536v450h458q45 0 77 32t32 77t-33 76.5t-78 31.5h-757q-59 0 -103.5 -44t-44.5 -103zM367 2048l307 -348h147l-225 348h-229z" />
<glyph unicode="&#xc9;" horiz-adv-x="1153" d="M92 1446l2 -1446h914q45 0 78 32q32 30 32 71q0 48 -34 82q-32 32 -76 32h-465v494h534v215h-536v450h458q45 0 77 32t32 77t-33 76.5t-78 31.5h-757q-59 0 -103.5 -44t-44.5 -103zM473 1675h148l307 348h-229z" />
<glyph unicode="&#xca;" horiz-adv-x="1153" d="M92 1446l2 -1446h914q45 0 78 32q32 30 32 71q0 48 -34 82q-32 32 -76 32h-465v494h534v215h-536v450h458q45 0 77 32t32 77t-33 76.5t-78 31.5h-757q-59 0 -103.5 -44t-44.5 -103zM268 1696h148l196 228l199 -228h147l-235 348h-230z" />
<glyph unicode="&#xcb;" horiz-adv-x="1153" d="M92 1446l2 -1446h914q45 0 78 32q32 30 32 71q0 48 -34 82q-32 32 -76 32h-465v494h534v215h-536v450h458q45 0 77 32t32 77t-33 76.5t-78 31.5h-757q-59 0 -103.5 -44t-44.5 -103zM346 1800q0 -45 32 -73.5t75 -28.5q45 0 76.5 29.5t31.5 72.5q0 47 -30.5 80t-77.5 33 q-45 0 -76 -33t-31 -80zM645 1800q0 -45 32 -73.5t79 -28.5q43 0 74.5 29.5t31.5 72.5q0 47 -30.5 80t-75.5 33q-47 0 -79 -33t-32 -80z" />
<glyph unicode="&#xcc;" horiz-adv-x="638" d="M94 0h451v1393q2 43 -16.5 84t-51.5 73.5t-74 51.5q-37 17 -75 16h-8.5h-8.5q-39 0 -77 -16q-42 -18 -73.5 -50t-50 -73t-16.5 -86v-1393zM21 2044l307 -348h147l-225 348h-229z" />
<glyph unicode="&#xcd;" horiz-adv-x="638" d="M94 0h451v1393q2 43 -16.5 84t-51.5 73.5t-74 51.5q-37 17 -75 16h-8.5h-8.5q-39 0 -77 -16q-42 -18 -73.5 -50t-50 -73t-16.5 -86v-1393zM143 1685h148l307 348h-229z" />
<glyph unicode="&#xce;" horiz-adv-x="638" d="M94 0h451v1393q2 43 -16.5 84t-51.5 73.5t-74 51.5q-37 17 -75 16h-8.5h-8.5q-39 0 -77 -16q-42 -18 -73.5 -50t-50 -73t-16.5 -86v-1393zM-23 1694h148l196 228l199 -228h147l-235 348h-230z" />
<glyph unicode="&#xcf;" horiz-adv-x="638" d="M94 0h451v1393q2 43 -16.5 84t-51.5 73.5t-74 51.5q-37 17 -75 16h-8.5h-8.5q-39 0 -77 -16q-42 -18 -73.5 -50t-50 -73t-16.5 -86v-1393zM55 1810q0 -45 32 -73.5t75 -28.5q45 0 76.5 29.5t31.5 72.5q0 47 -30.5 80t-77.5 33q-45 0 -76 -33t-31 -80zM354 1810 q0 -45 32 -73.5t79 -28.5q43 0 74.5 29.5t31.5 72.5q0 47 -30.5 80t-75.5 33q-47 0 -79 -33t-32 -80z" />
<glyph unicode="&#xd0;" horiz-adv-x="1748" d="M-4 666h96l2 -666h778q358 0 570 205q215 205 215 561q0 373 -244 600t-616 227h-557q-59 0 -103.5 -44t-44.5 -103v-545h-96v-235zM541 201v465h272v235h-272v490h149q166 0 284 -92.5t165 -251.5q31 -104 30 -216h-2q0 -258 -98 -425q-123 -205 -362 -205h-166z" />
<glyph unicode="&#xd1;" horiz-adv-x="1458" d="M92 0h238v1169h4l772 -1169h260v1499q0 49 -33 84t-82 35q-51 0 -86 -34t-35 -85v-711h-6l-530 805h-502v-1593zM356 1708l90 -10q8 18 22.5 37.5t35 35t45 22.5t53.5 1l29 -14q29 -14 67.5 -32.5t81.5 -35t74 -18.5q117 -14 192.5 46t92.5 177l-74 8q-14 -23 -28.5 -44 t-33 -35.5t-42 -20.5t-56.5 0q-8 2 -45 19.5t-81 37t-83 36.5t-49 17q-207 25 -291 -227z" />
<glyph unicode="&#xd2;" horiz-adv-x="1880" d="M92 797q0 -356 244 -600q244 -242 604 -242t602 242q246 242 246 600t-246 598q-242 242 -602 241q-360 0 -604 -241q-244 -240 -244 -598zM580 797q0 242 65 415q88 233 295 234q262 0 336 -373q25 -127 24 -276q0 -252 -61 -414q-88 -236 -299 -236q-262 0 -336 373 q-24 123 -24 277zM645 2054l307 -348h148l-226 348h-229z" />
<glyph unicode="&#xd3;" horiz-adv-x="1880" d="M92 797q0 -356 244 -600q244 -242 604 -242t602 242q246 242 246 600t-246 598q-242 242 -602 241q-360 0 -604 -241q-244 -240 -244 -598zM580 797q0 242 65 415q88 233 295 234q262 0 336 -373q25 -127 24 -276q0 -252 -61 -414q-88 -236 -299 -236q-262 0 -336 373 q-24 123 -24 277zM829 1702h148l307 348h-229z" />
<glyph unicode="&#xd4;" horiz-adv-x="1880" d="M92 797q0 -356 244 -600q244 -242 604 -242t602 242q246 242 246 600t-246 598q-242 242 -602 241q-360 0 -604 -241q-244 -240 -244 -598zM580 797q0 242 65 415q88 233 295 234q262 0 336 -373q25 -127 24 -276q0 -252 -61 -414q-88 -236 -299 -236q-262 0 -336 373 q-24 123 -24 277zM606 1696h148l196 227l199 -227h147l-235 348h-230z" />
<glyph unicode="&#xd5;" horiz-adv-x="1880" d="M92 797q0 -356 244 -600q244 -242 604 -242t602 242q246 242 246 600t-246 598q-242 242 -602 241q-360 0 -604 -241q-244 -240 -244 -598zM539 1733l90 -11q8 18 22.5 38t35 35t45 22.5t52.5 1.5l29 -15q29 -14 68 -32.5t82 -35t73 -18.5q117 -14 193 46.5t92 177.5 l-74 8q-14 -23 -28.5 -44.5t-33 -36t-42 -20.5t-56.5 0q-8 2 -44.5 19.5t-80.5 37t-83 37t-50 17.5q-206 25 -290 -227zM580 797q0 242 65 415q88 233 295 234q262 0 336 -373q25 -127 24 -276q0 -252 -61 -414q-88 -236 -299 -236q-262 0 -336 373q-24 123 -24 277z" />
<glyph unicode="&#xd6;" horiz-adv-x="1880" d="M92 797q0 -356 244 -600q244 -242 604 -242t602 242q246 242 246 600t-246 598q-242 242 -602 241q-360 0 -604 -241q-244 -240 -244 -598zM580 797q0 242 65 415q88 233 295 234q262 0 336 -373q25 -127 24 -276q0 -252 -61 -414q-88 -236 -299 -236q-262 0 -336 373 q-24 123 -24 277zM684 1821q0 -45 32 -74t75 -29q45 0 76.5 30t31.5 73q0 47 -30.5 79.5t-77.5 32.5q-45 0 -76 -32.5t-31 -79.5zM983 1821q0 -45 32 -74t79 -29q43 0 74.5 30t31.5 73q0 47 -30.5 79.5t-75.5 32.5q-47 0 -79 -32.5t-32 -79.5z" />
<glyph unicode="&#xd7;" horiz-adv-x="841" d="M39 897l211 -205l-207 -221l172 -170l205 223l227 -217l166 166l-225 219l215 221l4 5l-176 172l-4 -3l-215 -223l-209 201z" />
<glyph unicode="&#xd8;" horiz-adv-x="1880" d="M92 797q0 -356 244 -600q104 -104 225 -162l-65 -164l106 -23l60 148q133 -41 278 -41q360 0 602 242q246 242 246 600t-246 598q-115 113 -252 172l72 176l-107 22l-65 -161q-59 16 -121.5 24t-128.5 8q-360 0 -604 -241q-244 -240 -244 -598zM580 797q0 242 65 415 q88 233 295 234q96 0 166 -51l-432 -1082q-45 80 -70 207q-24 123 -24 277zM750 215l438 1094q57 -88 88 -236q25 -127 24 -276q0 -252 -61 -414q-88 -236 -299 -236q-114 0 -190 68z" />
<glyph unicode="&#xd9;" horiz-adv-x="1458" d="M92 508q0 -180 97.5 -312.5t265.5 -195.5q117 -45 268 -45q281 0 451 121q193 137 192 411v1106h-238v-1067q0 -313 -288 -313q-147 0 -224 83t-77 230v867q0 45 -17.5 86t-48.5 71.5t-72 49t-86 18.5q-47 0 -87 -18.5t-70.5 -49t-48 -71.5t-17.5 -86v-885zM545 2003 l307 -348h147l-225 348h-229z" />
<glyph unicode="&#xda;" horiz-adv-x="1458" d="M92 508q0 -180 97.5 -312.5t265.5 -195.5q117 -45 268 -45q281 0 451 121q193 137 192 411v1106h-238v-1067q0 -313 -288 -313q-147 0 -224 83t-77 230v867q0 45 -17.5 86t-48.5 71.5t-72 49t-86 18.5q-47 0 -87 -18.5t-70.5 -49t-48 -71.5t-17.5 -86v-885zM633 1669h147 l307 348h-229z" />
<glyph unicode="&#xdb;" horiz-adv-x="1458" d="M92 508q0 -180 97.5 -312.5t265.5 -195.5q117 -45 268 -45q281 0 451 121q193 137 192 411v1106h-238v-1067q0 -313 -288 -313q-147 0 -224 83t-77 230v867q0 45 -17.5 86t-48.5 71.5t-72 49t-86 18.5q-47 0 -87 -18.5t-70.5 -49t-48 -71.5t-17.5 -86v-885zM459 1667h147 l197 227l198 -227h148l-236 348h-229z" />
<glyph unicode="&#xdc;" horiz-adv-x="1458" d="M92 508q0 -180 97.5 -312.5t265.5 -195.5q117 -45 268 -45q281 0 451 121q193 137 192 411v1106h-238v-1067q0 -313 -288 -313q-147 0 -224 83t-77 230v867q0 45 -17.5 86t-48.5 71.5t-72 49t-86 18.5q-47 0 -87 -18.5t-70.5 -49t-48 -71.5t-17.5 -86v-885zM555 1782 q0 -45 31.5 -74t75.5 -29q45 0 76.5 30t31.5 73q0 47 -30.5 79.5t-77.5 32.5q-45 0 -76 -32.5t-31 -79.5zM854 1782q0 -45 32 -74t79 -29q43 0 74.5 30t31.5 73q0 47 -30.5 79.5t-75.5 32.5q-47 0 -79 -32.5t-32 -79.5z" />
<glyph unicode="&#xdd;" horiz-adv-x="1345" d="M40 1479.5q-11 -62.5 19 -117.5l340 -600v-762h447v791l463 802h-234l-332 -583l-278 493q-25 51 -69 86t-95 48.5t-104.5 2t-96.5 -52.5q-49 -45 -60 -107.5zM575 1618h148l307 348h-229z" />
<glyph unicode="&#xde;" horiz-adv-x="1472" d="M92 -2h447v180h155q143 0 271.5 29t224.5 95.5t152.5 175t56.5 270.5q0 133 -29 235t-93.5 173t-168.5 107.5t-254 36.5h-315v95q2 43 -16.5 84t-49.5 73.5t-72 51t-84 16.5q-43 2 -85 -16.5t-73.5 -50t-50 -72.5t-16.5 -86v-1397zM539 401v717h143q80 0 132 -30.5 t82 -82t41 -118t11 -135.5h-2q2 -63 -6 -126t-33.5 -113t-74 -81t-125.5 -31h-168z" />
<glyph unicode="&#xe0;" horiz-adv-x="1368" d="M92 432q0 -113 46 -193.5t122 -133t174 -78t203 -25.5q55 0 96 13.5t90 41.5l4 -57h244q90 0 135 1t57.5 3t12.5 4v625q0 535 -610 534h-459q-41 0 -65.5 -31.5t-24.5 -74.5q0 -106 90 -111h383q127 0 186 -86q-41 -8 -80 -14t-81 -15.5t-89 -20.5t-104 -28 q-70 -27 -130.5 -58.5t-104.5 -73.5t-69.5 -97t-25.5 -125zM406 1593l307 -348h147l-225 348h-229zM479 432q0 84 16.5 132t34.5 87q14 25 33 42.5t51.5 30.5t84 25.5t130.5 26.5v-538q-25 -43 -50 -55.5t-48 -8.5q-53 0 -99 20.5t-80 56.5t-53.5 82t-19.5 99z" />
<glyph unicode="&#xe1;" horiz-adv-x="1368" d="M92 432q0 -113 46 -193.5t122 -133t174 -78t203 -25.5q55 0 96 13.5t90 41.5l4 -57h244q90 0 135 1t57.5 3t12.5 4v625q0 535 -610 534h-459q-41 0 -65.5 -31.5t-24.5 -74.5q0 -106 90 -111h383q127 0 186 -86q-41 -8 -80 -14t-81 -15.5t-89 -20.5t-104 -28 q-70 -27 -130.5 -58.5t-104.5 -73.5t-69.5 -97t-25.5 -125zM479 432q0 84 16.5 132t34.5 87q14 25 33 42.5t51.5 30.5t84 25.5t130.5 26.5v-538q-25 -43 -50 -55.5t-48 -8.5q-53 0 -99 20.5t-80 56.5t-53.5 82t-19.5 99zM514 1229h148l307 348h-230z" />
<glyph unicode="&#xe2;" horiz-adv-x="1368" d="M92 432q0 -113 46 -193.5t122 -133t174 -78t203 -25.5q55 0 96 13.5t90 41.5l4 -57h244q90 0 135 1t57.5 3t12.5 4v625q0 535 -610 534h-459q-41 0 -65.5 -31.5t-24.5 -74.5q0 -106 90 -111h383q127 0 186 -86q-41 -8 -80 -14t-81 -15.5t-89 -20.5t-104 -28 q-70 -27 -130.5 -58.5t-104.5 -73.5t-69.5 -97t-25.5 -125zM322 1245h147l197 228l198 -228h148l-236 348h-229zM479 432q0 84 16.5 132t34.5 87q14 25 33 42.5t51.5 30.5t84 25.5t130.5 26.5v-538q-25 -43 -50 -55.5t-48 -8.5q-53 0 -99 20.5t-80 56.5t-53.5 82t-19.5 99z " />
<glyph unicode="&#xe3;" horiz-adv-x="1368" d="M92 432q0 -113 46 -193.5t122 -133t174 -78t203 -25.5q55 0 96 13.5t90 41.5l4 -57h244q90 0 135 1t57.5 3t12.5 4v625q0 535 -610 534h-459q-41 0 -65.5 -31.5t-24.5 -74.5q0 -106 90 -111h383q127 0 186 -86q-41 -8 -80 -14t-81 -15.5t-89 -20.5t-104 -28 q-70 -27 -130.5 -58.5t-104.5 -73.5t-69.5 -97t-25.5 -125zM266 1288l90 -10q8 18 22.5 37.5t35 35t45 22.5t53.5 1l29 -14q29 -14 67.5 -32.5t81.5 -35t74 -18.5q117 -14 192.5 46t92.5 177l-74 8q-14 -23 -28.5 -44t-33 -35.5t-42 -20.5t-56.5 0q-8 2 -45 19.5t-81 37 t-83 37t-49 17.5q-207 24 -291 -228zM479 432q0 84 16.5 132t34.5 87q14 25 33 42.5t51.5 30.5t84 25.5t130.5 26.5v-538q-25 -43 -50 -55.5t-48 -8.5q-53 0 -99 20.5t-80 56.5t-53.5 82t-19.5 99z" />
<glyph unicode="&#xe4;" horiz-adv-x="1368" d="M92 432q0 -113 46 -193.5t122 -133t174 -78t203 -25.5q55 0 96 13.5t90 41.5l4 -57h244q90 0 135 1t57.5 3t12.5 4v625q0 535 -610 534h-459q-41 0 -65.5 -31.5t-24.5 -74.5q0 -106 90 -111h383q127 0 186 -86q-41 -8 -80 -14t-81 -15.5t-89 -20.5t-104 -28 q-70 -27 -130.5 -58.5t-104.5 -73.5t-69.5 -97t-25.5 -125zM432 1415q0 -45 32 -73.5t75 -28.5q45 0 76.5 29.5t31.5 72.5q0 47 -30.5 80t-77.5 33q-45 0 -76 -33t-31 -80zM479 432q0 84 16.5 132t34.5 87q14 25 33 42.5t51.5 30.5t84 25.5t130.5 26.5v-538 q-25 -43 -50 -55.5t-48 -8.5q-53 0 -99 20.5t-80 56.5t-53.5 82t-19.5 99zM731 1415q0 -45 32 -73.5t79 -28.5q43 0 74.5 29.5t31.5 72.5q0 47 -30.5 80t-75.5 33q-47 0 -79 -33t-32 -80z" />
<glyph unicode="&#xe5;" horiz-adv-x="1368" d="M92 432q0 -113 46 -193.5t122 -133t174 -78t203 -25.5q55 0 96 13.5t90 41.5l4 -57h244q90 0 135 1t57.5 3t12.5 4v625q0 535 -610 534h-459q-41 0 -65.5 -31.5t-24.5 -74.5q0 -106 90 -111h383q127 0 186 -86q-41 -8 -80 -14t-81 -15.5t-89 -20.5t-104 -28 q-70 -27 -130.5 -58.5t-104.5 -73.5t-69.5 -97t-25.5 -125zM455 1475q0 -109 75.5 -185t184.5 -76t182 76q76 76 76 185q0 106 -76 182t-182 76q-109 0 -184.5 -76t-75.5 -182zM479 432q0 84 16.5 132t34.5 87q14 25 33 42.5t51.5 30.5t84 25.5t130.5 26.5v-538 q-25 -43 -50 -55.5t-48 -8.5q-53 0 -99 20.5t-80 56.5t-53.5 82t-19.5 99zM575 1475q0 57 41 97t99 40q57 0 97 -40t40 -97t-40 -98.5t-97 -41.5t-98.5 41.5t-41.5 98.5z" />
<glyph unicode="&#xe6;" horiz-adv-x="2148" d="M92 432q0 -113 46 -193.5t122 -133t174 -78t203 -25.5q55 0 131 17.5t150 68.5l126 117q45 -68 87.5 -108t93.5 -61.5t119.5 -29.5t171.5 -10q88 0 178 26.5t161.5 69.5t116.5 95.5t43 101.5q-2 57 -44 94t-99 37q-53 0 -81 -24.5t-58.5 -53.5t-76.5 -52.5t-132 -21.5 q-111 4 -173.5 67.5t-72.5 192.5h817l6 11q12 156 -28.5 278.5t-123.5 205.5t-201 127t-259 44q-117 0 -224.5 -30.5t-193.5 -90.5q-150 94 -405 94h-459q-41 0 -65.5 -31.5t-24.5 -74.5q0 -106 90 -111h383q127 0 186 -86q-41 -8 -80 -14t-81 -15.5t-89 -20.5t-104 -28 q-70 -27 -130.5 -58.5t-104.5 -73.5t-69.5 -97t-25.5 -125zM479 432q0 84 16.5 132t34.5 87q14 25 33 42.5t51.5 30.5t84 25.5t130.5 26.5v-538q-25 -43 -50 -55.5t-48 -8.5q-53 0 -99 20.5t-80 56.5t-53.5 82t-19.5 99zM1292 760q51 180 221 180q98 0 164 -47 q39 -29 53.5 -59.5t24.5 -73.5h-463z" />
<glyph unicode="&#xe7;" horiz-adv-x="1374" d="M92 567q0 -266 213 -442q137 -113 311 -148q2 -4 2 -6t3 -6l108 -424l25 6l112 418q135 14 234.5 76.5t183.5 183.5q23 35 23 72q0 57 -42 94t-102 37q-61 0 -108 -53q-41 -41 -66.5 -68.5t-52.5 -44t-60.5 -23t-91.5 -6.5q-129 0 -196 111q-55 92 -56 231q0 139 52 224 q63 106 190 106q45 0 81 -12t66.5 -31.5t56.5 -42t50 -43.5q55 -47 109 -47q57 0 101 39t44 96q0 41 -27 80q-104 121 -225 170q-109 45 -280 45q-279 0 -461 -155q-197 -165 -197 -437z" />
<glyph unicode="&#xe8;" horiz-adv-x="1429" d="M92 567q4 -154 54.5 -267.5t140.5 -188t214 -111.5t275 -39q88 0 178 26.5t162 69.5t117 95.5t43 101.5q-2 57 -44 94t-99 37q-53 0 -81 -24.5t-58.5 -53t-77 -52.5t-132.5 -22q-111 4 -173 68t-72 193h817l6 10q12 156 -29 278.5t-124 205.5t-200.5 127t-258.5 44 q-133 0 -254 -40t-212 -116.5t-143.5 -186.5t-48.5 -249zM424 1589l307 -348h148l-226 348h-229zM553 725q51 180 221 180q98 0 164 -47q39 -29 53.5 -59.5t24.5 -73.5h-463z" />
<glyph unicode="&#xe9;" horiz-adv-x="1429" d="M92 567q4 -154 54.5 -267.5t140.5 -188t214 -111.5t275 -39q88 0 178 26.5t162 69.5t117 95.5t43 101.5q-2 57 -44 94t-99 37q-53 0 -81 -24.5t-58.5 -53t-77 -52.5t-132.5 -22q-111 4 -173 68t-72 193h817l6 10q12 156 -29 278.5t-124 205.5t-200.5 127t-258.5 44 q-133 0 -254 -40t-212 -116.5t-143.5 -186.5t-48.5 -249zM553 725q51 180 221 180q98 0 164 -47q39 -29 53.5 -59.5t24.5 -73.5h-463zM573 1237h148l307 348h-229z" />
<glyph unicode="&#xea;" horiz-adv-x="1429" d="M92 567q4 -154 54.5 -267.5t140.5 -188t214 -111.5t275 -39q88 0 178 26.5t162 69.5t117 95.5t43 101.5q-2 57 -44 94t-99 37q-53 0 -81 -24.5t-58.5 -53t-77 -52.5t-132.5 -22q-111 4 -173 68t-72 193h817l6 10q12 156 -29 278.5t-124 205.5t-200.5 127t-258.5 44 q-133 0 -254 -40t-212 -116.5t-143.5 -186.5t-48.5 -249zM412 1249h147l197 228l198 -228h148l-236 348h-229zM553 725q51 180 221 180q98 0 164 -47q39 -29 53.5 -59.5t24.5 -73.5h-463z" />
<glyph unicode="&#xeb;" horiz-adv-x="1429" d="M92 567q4 -154 54.5 -267.5t140.5 -188t214 -111.5t275 -39q88 0 178 26.5t162 69.5t117 95.5t43 101.5q-2 57 -44 94t-99 37q-53 0 -81 -24.5t-58.5 -53t-77 -52.5t-132.5 -22q-111 4 -173 68t-72 193h817l6 10q12 156 -29 278.5t-124 205.5t-200.5 127t-258.5 44 q-133 0 -254 -40t-212 -116.5t-143.5 -186.5t-48.5 -249zM485 1393q0 -45 32 -74t75 -29q45 0 76.5 30t31.5 73q0 47 -30.5 79.5t-77.5 32.5q-45 0 -76 -32.5t-31 -79.5zM553 725q51 180 221 180q98 0 164 -47q39 -29 53.5 -59.5t24.5 -73.5h-463zM784 1393q0 -45 32 -74 t79 -29q43 0 74.5 30t31.5 73q0 47 -30.5 79.5t-75.5 32.5q-47 0 -79 -32.5t-32 -79.5z" />
<glyph unicode="&#xec;" horiz-adv-x="636" d="M41 1593l307 -348h148l-226 348h-229zM92 4h451v918q2 45 -16.5 86t-51.5 71.5t-74 49t-84 18.5q-45 0 -86 -18.5t-71.5 -49t-49 -71.5t-18.5 -86v-918z" />
<glyph unicode="&#xed;" horiz-adv-x="636" d="M92 4h451v918q2 45 -16.5 86t-51.5 71.5t-74 49t-84 18.5q-45 0 -86 -18.5t-71.5 -49t-49 -71.5t-18.5 -86v-918zM178 1245h148l307 348h-230z" />
<glyph unicode="&#xee;" horiz-adv-x="636" d="M-33 1245h148l196 228l199 -228h147l-235 348h-229zM92 4h451v918q2 45 -16.5 86t-51.5 71.5t-74 49t-84 18.5q-45 0 -86 -18.5t-71.5 -49t-49 -71.5t-18.5 -86v-918z" />
<glyph unicode="&#xef;" horiz-adv-x="636" d="M63 1397q0 -45 32 -74t75 -29q45 0 77 30t32 73q0 47 -31 79.5t-78 32.5q-45 0 -76 -32.5t-31 -79.5zM92 4h451v918q2 45 -16.5 86t-51.5 71.5t-74 49t-84 18.5q-45 0 -86 -18.5t-71.5 -49t-49 -71.5t-18.5 -86v-918zM362 1397q0 -45 32 -74t79 -29q43 0 75 30t32 73 q0 47 -31 79.5t-76 32.5q-47 0 -79 -32.5t-32 -79.5z" />
<glyph unicode="&#xf0;" horiz-adv-x="1337" d="M92 580q0 -125 46 -231.5t127 -184.5t189.5 -122t231.5 -44q254 0 404 133q86 78 121.5 178.5t32.5 211t-38 225t-90 223.5l-201 411l72 27l-47 133l-88 -33l-72 152h-475l144 -297l-82 -29l47 -133l96 35l119 -244q-23 2 -43.5 3t-36.5 1q-92 0 -174 -29.5t-145.5 -84 t-100.5 -131t-37 -170.5zM510 481q0 37 6 89.5t22.5 100.5t46 80.5t72.5 32.5q45 0 74 -29.5t45.5 -74.5t22.5 -98.5t6 -100.5q0 -37 -6 -89t-22.5 -99t-45.5 -80t-74 -33q-49 0 -76.5 29t-42 74t-19.5 98t-9 100z" />
<glyph unicode="&#xf1;" d="M92 0l445 2v856q23 39 56.5 59.5t66 29.5t58 10t30.5 1q61 -2 101 -23.5t62.5 -67.5t31.5 -121.5t9 -188.5v-412q0 -41 21.5 -69.5t53.5 -46t72 -25.5t77 -8t76.5 8t71.5 25.5t52.5 46t20.5 69.5v244v162q0 63 -1 98t-2 53.5t-2 26.5t-3 19q-18 100 -59.5 180t-112 135 t-175 86t-247.5 35q-16 0 -46 -4t-66 -15.5t-75 -30t-71 -49.5v84h-445v-1169zM319 1288l91 -10q8 18 22 37.5t34.5 35t45.5 22.5t53 1l29 -14q29 -14 67.5 -32.5t81.5 -35t74 -18.5q117 -14 192.5 46t92.5 177l-74 8q-14 -23 -28.5 -44t-33 -35.5t-42 -20.5t-56.5 0 q-8 2 -45 19.5t-81 37t-82.5 37t-49.5 17.5q-207 24 -291 -228z" />
<glyph unicode="&#xf2;" horiz-adv-x="1531" d="M92 584q0 -133 55.5 -247t149.5 -196t215 -127t254 -41q131 -4 253 41t216 127t149.5 196t55.5 247q0 137 -55.5 249.5t-148.5 192.5t-215 124t-255 44t-255 -44t-215 -124t-148.5 -192.5t-55.5 -249.5zM455 1583l307 -348h147l-225 348h-229zM539 584q0 190 60 287.5 t167 97.5q41 0 82 -15.5t72.5 -58.5t52 -118t20.5 -193q0 -190 -60.5 -287.5t-166.5 -97.5t-166.5 97.5t-60.5 287.5z" />
<glyph unicode="&#xf3;" horiz-adv-x="1531" d="M92 584q0 -133 55.5 -247t149.5 -196t215 -127t254 -41q131 -4 253 41t216 127t149.5 196t55.5 247q0 137 -55.5 249.5t-148.5 192.5t-215 124t-255 44t-255 -44t-215 -124t-148.5 -192.5t-55.5 -249.5zM539 584q0 190 60 287.5t167 97.5q41 0 82 -15.5t72.5 -58.5 t52 -118t20.5 -193q0 -190 -60.5 -287.5t-166.5 -97.5t-166.5 97.5t-60.5 287.5zM645 1229h148l307 348h-230z" />
<glyph unicode="&#xf4;" horiz-adv-x="1531" d="M92 584q0 -133 55.5 -247t149.5 -196t215 -127t254 -41q131 -4 253 41t216 127t149.5 196t55.5 247q0 137 -55.5 249.5t-148.5 192.5t-215 124t-255 44t-255 -44t-215 -124t-148.5 -192.5t-55.5 -249.5zM414 1233h147l197 227l198 -227h148l-236 348h-229zM539 584 q0 190 60 287.5t167 97.5q41 0 82 -15.5t72.5 -58.5t52 -118t20.5 -193q0 -190 -60.5 -287.5t-166.5 -97.5t-166.5 97.5t-60.5 287.5z" />
<glyph unicode="&#xf5;" horiz-adv-x="1531" d="M92 584q0 -133 55.5 -247t149.5 -196t215 -127t254 -41q131 -4 253 41t216 127t149.5 196t55.5 247q0 137 -55.5 249.5t-148.5 192.5t-215 124t-255 44t-255 -44t-215 -124t-148.5 -192.5t-55.5 -249.5zM360 1268l91 -11q8 18 22 38t34.5 35.5t45.5 22.5t53 1l29 -15 q29 -14 67.5 -32.5t81.5 -35t74 -18.5q117 -14 192.5 46.5t92.5 177.5l-74 8q-14 -23 -28.5 -44.5t-33 -35.5t-42 -20.5t-56.5 -0.5q-8 2 -45 19.5t-81 37t-82.5 37t-49.5 17.5q-207 25 -291 -227zM539 584q0 190 60 287.5t167 97.5q41 0 82 -15.5t72.5 -58.5t52 -118 t20.5 -193q0 -190 -60.5 -287.5t-166.5 -97.5t-166.5 97.5t-60.5 287.5z" />
<glyph unicode="&#xf6;" horiz-adv-x="1531" d="M92 584q0 -133 55.5 -247t149.5 -196t215 -127t254 -41q131 -4 253 41t216 127t149.5 196t55.5 247q0 137 -55.5 249.5t-148.5 192.5t-215 124t-255 44t-255 -44t-215 -124t-148.5 -192.5t-55.5 -249.5zM506 1421q0 -45 31.5 -73.5t74.5 -28.5q45 0 77 29.5t32 72.5 q0 47 -31 80t-78 33q-45 0 -75.5 -33t-30.5 -80zM539 584q0 190 60 287.5t167 97.5q41 0 82 -15.5t72.5 -58.5t52 -118t20.5 -193q0 -190 -60.5 -287.5t-166.5 -97.5t-166.5 97.5t-60.5 287.5zM805 1421q0 -45 31.5 -73.5t78.5 -28.5q43 0 75 29.5t32 72.5q0 47 -30.5 80 t-76.5 33q-47 0 -78.5 -33t-31.5 -80z" />
<glyph unicode="&#xf7;" horiz-adv-x="1032" d="M49 575h930v236h-930v-236zM326 356q0 -82 57 -135t139 -53q39 0 75 14.5t63.5 40t43 59t15.5 74.5q0 86 -55.5 145.5t-141.5 59.5t-141 -59.5t-55 -145.5zM326 1022q0 -82 57 -135t139 -53q39 0 75 14t63.5 39.5t43 59.5t15.5 75q0 86 -55.5 145.5t-141.5 59.5 t-141 -59.5t-55 -145.5z" />
<glyph unicode="&#xf8;" horiz-adv-x="1531" d="M92 584q0 -90 25.5 -170t72 -148.5t108.5 -124t138 -94.5l-74 -160l105 -32l70 149q109 -35 229 -31q131 -4 253 41t216 127t149.5 196t55.5 247q0 96 -29 181t-80 155.5t-120.5 125t-151.5 89.5l80 170l-105 32l-78 -168q-92 25 -190 25q-133 0 -255 -44t-215 -124 t-148.5 -192.5t-55.5 -249.5zM539 584q0 190 60 287.5t167 97.5q45 0 88 -19l-279 -604q-36 93 -36 238zM645 242l291 628q27 -45 42 -113.5t15 -172.5q0 -190 -60.5 -287.5t-166.5 -97.5q-70 0 -121 43z" />
<glyph unicode="&#xf9;" d="M94 616q0 -63 1 -99t2 -55.5t2 -27.5t3 -18q18 -100 59.5 -180t112 -135.5t175 -87t247.5 -33.5q16 0 46 4t66 15t74 29.5t72 49.5v-78h445v1169h-445v-864q-23 -39 -56.5 -59.5t-66 -29.5t-58 -10t-30.5 -1q-61 2 -101 23.5t-62.5 67.5t-31.5 122t-9 188v416 q0 41 -21.5 69.5t-53.5 46t-72 25.5t-77 8t-76.5 -8t-71.5 -25.5t-52.5 -46t-20.5 -69.5v-244v-162zM432 1593l307 -348h148l-225 348h-230z" />
<glyph unicode="&#xfa;" d="M94 616q0 -63 1 -99t2 -55.5t2 -27.5t3 -18q18 -100 59.5 -180t112 -135.5t175 -87t247.5 -33.5q16 0 46 4t66 15t74 29.5t72 49.5v-78h445v1169h-445v-864q-23 -39 -56.5 -59.5t-66 -29.5t-58 -10t-30.5 -1q-61 2 -101 23.5t-62.5 67.5t-31.5 122t-9 188v416 q0 41 -21.5 69.5t-53.5 46t-72 25.5t-77 8t-76.5 -8t-71.5 -25.5t-52.5 -46t-20.5 -69.5v-244v-162zM631 1245h147l307 348h-229z" />
<glyph unicode="&#xfb;" d="M94 616q0 -63 1 -99t2 -55.5t2 -27.5t3 -18q18 -100 59.5 -180t112 -135.5t175 -87t247.5 -33.5q16 0 46 4t66 15t74 29.5t72 49.5v-78h445v1169h-445v-864q-23 -39 -56.5 -59.5t-66 -29.5t-58 -10t-30.5 -1q-61 2 -101 23.5t-62.5 67.5t-31.5 122t-9 188v416 q0 41 -21.5 69.5t-53.5 46t-72 25.5t-77 8t-76.5 -8t-71.5 -25.5t-52.5 -46t-20.5 -69.5v-244v-162zM412 1245h147l197 228l198 -228h148l-236 348h-229z" />
<glyph unicode="&#xfc;" d="M94 616q0 -63 1 -99t2 -55.5t2 -27.5t3 -18q18 -100 59.5 -180t112 -135.5t175 -87t247.5 -33.5q16 0 46 4t66 15t74 29.5t72 49.5v-78h445v1169h-445v-864q-23 -39 -56.5 -59.5t-66 -29.5t-58 -10t-30.5 -1q-61 2 -101 23.5t-62.5 67.5t-31.5 122t-9 188v416 q0 41 -21.5 69.5t-53.5 46t-72 25.5t-77 8t-76.5 -8t-71.5 -25.5t-52.5 -46t-20.5 -69.5v-244v-162zM469 1421q0 -45 31.5 -73.5t74.5 -28.5q45 0 77 29.5t32 72.5q0 47 -30.5 80t-78.5 33q-45 0 -75.5 -33t-30.5 -80zM768 1421q0 -45 31.5 -73.5t79.5 -28.5q43 0 74.5 29.5 t31.5 72.5q0 47 -30.5 80t-75.5 33q-47 0 -79 -33t-32 -80z" />
<glyph unicode="&#xfd;" horiz-adv-x="1492" d="M92 313q8 -313 705 -313h155q8 -74 4 -145.5t-29.5 -128t-74.5 -91t-129 -34.5h-186v-217h262q324 0 463 135t139 461v1167h-447v-924h-170q-96 0 -156.5 41t-64.5 152q-4 135 -2 274t0 283q0 43 -21.5 76.5t-54 57t-73.5 35t-80 11.5q-41 0 -84 -11.5t-78 -33t-56.5 -54 t-21.5 -77.5v-664zM616 1241h148l307 348h-229z" />
<glyph unicode="&#xfe;" horiz-adv-x="1472" d="M92 -455h447v455h155q143 0 271.5 28.5t224.5 95t152.5 175.5t56.5 270q0 133 -29 235.5t-93.5 173.5t-168.5 107.5t-254 36.5h-315v273q2 43 -16.5 84t-49.5 73.5t-72 51t-84 16.5q-43 2 -85 -16.5t-73.5 -50t-50 -72.5t-16.5 -86v-1850zM539 223v717h143 q80 0 132 -30.5t82 -82t41 -118t11 -136.5h-2q2 -63 -6 -125.5t-33.5 -112.5t-74 -81t-125.5 -31h-168z" />
<glyph unicode="&#xff;" horiz-adv-x="1492" d="M92 313q2 -80 44 -138t128 -97t218 -58.5t315 -19.5h155q8 -74 4 -145.5t-29.5 -128t-74.5 -91t-129 -34.5h-186v-217h262q324 0 463 135t139 461v1167h-447v-924h-170q-96 0 -156.5 41t-64.5 152q-4 135 -2 274t0 283q0 43 -21.5 76.5t-54 57t-73.5 35t-80 11.5 q-41 0 -84 -11.5t-78 -33t-56.5 -54t-21.5 -77.5v-664zM489 1413q0 -45 32 -73.5t75 -28.5q45 0 77 29.5t32 72.5q0 47 -31 80t-78 33q-45 0 -76 -33t-31 -80zM788 1413q0 -45 32 -73.5t79 -28.5q43 0 75 29.5t32 72.5q0 47 -31 80t-76 33q-47 0 -79 -33t-32 -80z" />
<glyph unicode="&#x152;" horiz-adv-x="2363" d="M92 797q0 -356 244 -600q244 -242 604 -242q195 0 360 72v-25h914q45 0 79 32t31.5 77t-34 76.5t-76.5 31.5h-465v494h535v215h-537v450h459q45 0 76.5 32t31.5 77t-32.5 76.5t-77.5 31.5h-758q-33 0 -60.5 -14t-50.5 -37q-176 92 -395 92q-360 0 -604 -241 q-244 -240 -244 -598zM580 797q0 242 65 415q88 233 295 234q90 0 157.5 -51.5t113.5 -133t67.5 -185t19.5 -206.5q-2 -104 -6 -180t-12 -133t-18.5 -98t-22.5 -76q-88 -236 -299 -236q-262 0 -336 373q-24 123 -24 277z" />
<glyph unicode="&#x153;" horiz-adv-x="2306" d="M92 584q0 -133 55.5 -247t149.5 -196t215 -127t254 -41q123 -4 234.5 33t203.5 109q88 -68 208 -101.5t265 -36.5q88 0 178.5 27t162 70t116.5 95t43 101q-2 57 -44 94t-99 37q-53 0 -81 -24.5t-58.5 -53t-76.5 -52t-132 -21.5q-111 4 -173.5 67.5t-72.5 192.5h817l6 10 q12 156 -29 279t-123.5 205.5t-200.5 127t-259 44.5q-123 0 -234.5 -34t-202.5 -100q-92 72 -206.5 112t-241.5 40q-133 0 -255 -44t-215 -124t-148.5 -192.5t-55.5 -249.5zM539 584q0 190 60 287.5t167 97.5q41 0 82 -15.5t72.5 -58.5t52 -118t20.5 -193 q0 -190 -60.5 -287.5t-166.5 -97.5t-166.5 97.5t-60.5 287.5zM1454 741q51 180 221 181q98 0 164 -48q39 -29 53.5 -59.5t24.5 -73.5h-463z" />
<glyph unicode="&#x178;" horiz-adv-x="1345" d="M40 1479.5q-11 -62.5 19 -117.5l340 -600v-762h447v791l463 802h-234l-332 -583l-278 493q-25 51 -69 86t-95 48.5t-104.5 2t-96.5 -52.5q-49 -45 -60 -107.5zM444 1788q0 -45 32 -73.5t75 -28.5q45 0 76.5 29.5t31.5 72.5q0 47 -30.5 80t-77.5 33q-45 0 -76 -33t-31 -80 zM743 1788q0 -45 32 -73.5t79 -28.5q43 0 75 29.5t32 72.5q0 47 -31 80t-76 33q-47 0 -79 -33t-32 -80z" />
<glyph unicode="&#x2c6;" horiz-adv-x="874" d="M92 1245h148l196 228l199 -228h147l-235 348h-230z" />
<glyph unicode="&#x2dc;" horiz-adv-x="933" d="M76 1276l90 -10q8 18 22.5 37.5t35 35t45 22.5t53.5 1l28 -14q29 -14 68 -33t82 -35t73 -18q117 -14 193 46t92 177l-74 8q-14 -23 -28.5 -44.5t-32.5 -35.5t-42 -20.5t-56 0.5q-8 2 -45 19.5t-81 36.5t-83 36.5t-49 17.5q-207 25 -291 -227z" />
<glyph unicode="&#x2000;" horiz-adv-x="1110" />
<glyph unicode="&#x2001;" horiz-adv-x="2220" />
<glyph unicode="&#x2002;" horiz-adv-x="1110" />
<glyph unicode="&#x2003;" horiz-adv-x="2220" />
<glyph unicode="&#x2004;" horiz-adv-x="739" />
<glyph unicode="&#x2005;" horiz-adv-x="555" />
<glyph unicode="&#x2006;" horiz-adv-x="368" />
<glyph unicode="&#x2007;" horiz-adv-x="368" />
<glyph unicode="&#x2008;" horiz-adv-x="276" />
<glyph unicode="&#x2009;" horiz-adv-x="442" />
<glyph unicode="&#x200a;" horiz-adv-x="122" />
<glyph unicode="&#x2010;" horiz-adv-x="786" d="M92 575h602v236h-602v-236z" />
<glyph unicode="&#x2011;" horiz-adv-x="786" d="M92 575h602v236h-602v-236z" />
<glyph unicode="&#x2012;" horiz-adv-x="786" d="M92 575h602v236h-602v-236z" />
<glyph unicode="&#x2013;" horiz-adv-x="1140" d="M0 584h1141v227h-1141v-227z" />
<glyph unicode="&#x2014;" horiz-adv-x="1525" d="M0 588h1526v223h-1526v-223z" />
<glyph unicode="&#x2018;" horiz-adv-x="446" d="M45 1554q12 -55 49 -92l312 -309l24 8l-119 422q-16 59 -61 96q-47 39 -107 27q-57 -12 -84.5 -52.5t-13.5 -99.5z" />
<glyph unicode="&#x2019;" horiz-adv-x="442" d="M12 1161l25 -8l311 309q37 37 49 92q14 59 -13.5 99.5t-84.5 52.5q-59 12 -106 -27q-45 -37 -62 -96z" />
<glyph unicode="&#x201a;" horiz-adv-x="442" d="M12 -274l25 -9l311 310q37 37 49 92q14 59 -13.5 99t-84.5 52q-59 12 -106 -26q-45 -37 -62 -97z" />
<glyph unicode="&#x201c;" horiz-adv-x="800" d="M39 1538q12 -59 49 -92l311 -307l23 6l-115 422q-18 61 -63 96q-49 39 -105 27q-59 -10 -86.5 -51.5t-13.5 -100.5zM399 1554q12 -55 50 -92l311 -309l24 8l-118 422q-16 59 -62 96q-47 39 -106 27q-57 -12 -85 -52.5t-14 -99.5z" />
<glyph unicode="&#x201d;" horiz-adv-x="800" d="M12 1161l25 -8l311 309q37 37 49 92q14 59 -13.5 99.5t-84.5 52.5q-59 12 -106 -27q-45 -37 -62 -96zM375 1145l22 -6l312 307q37 33 49 92q14 59 -13.5 100t-87.5 52q-55 12 -104 -27q-45 -35 -64 -96z" />
<glyph unicode="&#x201e;" horiz-adv-x="800" d="M12 -264l25 -8l311 309q37 37 49 92q14 59 -13.5 99t-84.5 53q-59 12 -106 -27q-45 -37 -62 -96zM375 -281l22 -6l312 307q37 33 49 93q14 59 -13.5 100t-87.5 51q-55 12 -104 -26q-45 -35 -64 -97z" />
<glyph unicode="&#x2022;" horiz-adv-x="845" d="M115 791q0 -66 24.5 -120.5t66.5 -94t99 -62t123 -22.5q63 0 119.5 23.5t99.5 63t67.5 94t24.5 118.5q0 68 -23.5 127t-65.5 103t-98 69.5t-124 25.5t-125 -25.5t-99 -69.5t-65.5 -103t-23.5 -127z" />
<glyph unicode="&#x2026;" horiz-adv-x="1697" d="M92 172q0 -82 57.5 -135t139.5 -53q39 0 74.5 14t63.5 39.5t43 59.5t15 75q0 86 -55 145.5t-141 59.5t-141.5 -59.5t-55.5 -145.5zM641 172q0 -82 57.5 -135t139.5 -53q39 0 74.5 14t63.5 39.5t43 59.5t15 75q0 86 -55 145.5t-141 59.5t-141.5 -59.5t-55.5 -145.5z M1196 174q0 -82 57.5 -135t139.5 -53q39 0 74.5 14t63.5 40t43 59.5t15 74.5q0 86 -55 145.5t-141 59.5t-141.5 -59.5t-55.5 -145.5z" />
<glyph unicode="&#x202f;" horiz-adv-x="442" />
<glyph unicode="&#x2039;" horiz-adv-x="479" d="M66 432l348 -235v147l-228 199l228 196v148l-348 -225v-230z" />
<glyph unicode="&#x203a;" horiz-adv-x="479" d="M66 197v147l227 199l-227 196v148l348 -225v-230z" />
<glyph unicode="&#x205f;" horiz-adv-x="555" />
<glyph unicode="&#x2122;" horiz-adv-x="1751" d="M33 1536q0 -29 20.5 -49.5t48.5 -20.5h164v-745h264v745h234v138h-662q-29 0 -49 -19.5t-20 -48.5zM817 1606l2 -885h150v500l211 -500h45l215 520v-401q0 -55 38 -93t93 -38q53 0 92 37.5t39 91.5v768h-258l-178 -435l-185 435h-264z" />
<glyph unicode="&#xe000;" horiz-adv-x="1170" d="M0 1170h1170v-1170h-1170v1170z" />
<glyph unicode="&#xfb01;" horiz-adv-x="1384" d="M41 846h149v-846h443v846h233v-846h451v918q2 45 -16.5 85.5t-51 71.5t-73.5 49.5t-84 18.5q-51 0 -95.5 -21.5t-76.5 -58.5q-10 8 -22.5 13t-29.5 5h-235q6 125 39 191q53 109 198 108h158v217h-233q-604 -8 -611 -516h-143v-235z" />
<glyph unicode="&#xfb02;" horiz-adv-x="1531" d="M41 874h149v-874h443v874h235q96 0 97 113q0 47 -26 85t-71 38h-235q6 125 39 190q51 104 198 109h146l2 -1407h444l2 1417q0 45 -18.5 86t-49 72t-70.5 49.5t-85 18.5q-49 0 -88 -19h-358q-604 -8 -611 -516h-143v-236z" />
<glyph unicode="&#xfb03;" horiz-adv-x="2717" d="M2173 4h451v918q2 45 -16.5 86t-51.5 71.5t-74 49t-84 18.5q-45 0 -86 -18.5t-71.5 -49t-49 -71.5t-18.5 -86v-918zM2198 1497q0 -82 57 -135t139 -53q39 0 75 14t63.5 40t43 59.5t15.5 74.5q0 86 -55.5 145.5t-141.5 59.5t-141 -59.5t-55 -145.5zM1081 850h149v-850h443 v850h235q96 0 97 113q0 47 -26 84.5t-71 37.5h-235q4 61 13 118t26 91q53 109 198 109h158v217h-233q-305 -4 -456 -141.5t-155 -393.5h-143v-235zM41 850h149v-850h443v850h235q96 0 97 113q0 47 -26 84.5t-71 37.5h-235q4 61 13 118t26 91q53 109 198 109h158v217h-233 q-305 -4 -456 -141.5t-155 -393.5h-143v-235z" />
<glyph unicode="&#xfb04;" horiz-adv-x="2715" d="M2173 1481l2 -1481h445v1481q0 45 -17.5 86t-48.5 71.5t-71 49t-85 18.5t-86 -18.5t-71.5 -49t-49 -71.5t-18.5 -86zM1081 850h149v-850h443v850h235q96 0 97 113q0 47 -26 84.5t-71 37.5h-235q4 61 13 118t26 91q53 109 198 109h158v217h-233q-305 -4 -456 -141.5 t-155 -393.5h-143v-235zM41 850h149v-850h443v850h235q96 0 97 113q0 47 -26 84.5t-71 37.5h-235q4 61 13 118t26 91q53 109 198 109h158v217h-233q-305 -4 -456 -141.5t-155 -393.5h-143v-235z" />
</font>
</defs>
</svg>
